<svg width="150" height="80" viewBox="0 0 150 80" fill="none" xmlns="http://www.w3.org/2000/svg">
<path d="M125.32 63.5297C125.32 72.2317 118.26 79.3175 109.589 79.3175H24V16.7878C24 8.08587 31.06 1 39.73 1H125.32V63.5297Z" fill="white"/>
<path d="M97.451 47.4932H103.953C104.139 47.4932 104.573 47.431 104.758 47.431C105.997 47.1824 107.05 46.0636 107.05 44.5097C107.05 43.0179 105.997 41.8991 104.758 41.5883C104.573 41.5261 104.201 41.5261 103.953 41.5261H97.451V47.4932Z" fill="url(#paint0_linear)"/>
<path d="M103.21 6.2832C97.017 6.2832 91.939 11.3179 91.939 17.5957V29.3434H107.855C108.227 29.3434 108.66 29.3434 108.97 29.4055C112.562 29.592 115.225 31.4567 115.225 34.6889C115.225 37.2373 113.429 39.4128 110.085 39.8479V39.9722C113.739 40.2208 116.526 42.272 116.526 45.442C116.526 48.8606 113.429 51.0982 109.341 51.0982H91.877V74.0962H108.413C114.606 74.0962 119.684 69.0615 119.684 62.7837V6.2832H103.21Z" fill="url(#paint1_linear)"/>
<path d="M106.245 35.4349C106.245 33.9431 105.192 32.9486 103.953 32.7621C103.829 32.7621 103.52 32.7 103.334 32.7H97.451V38.1698H103.334C103.52 38.1698 103.891 38.1698 103.953 38.1076C105.192 37.9211 106.245 36.9266 106.245 35.4349Z" fill="url(#paint2_linear)"/>
<path d="M40.907 6.2832C34.714 6.2832 29.636 11.3179 29.636 17.5957V45.5041C32.794 47.058 36.0759 48.0526 39.3589 48.0526C43.2599 48.0526 45.366 45.6906 45.366 42.4584V29.2812H55.027V42.3963C55.027 47.4931 51.869 51.6576 41.155 51.6576C34.652 51.6576 29.574 50.228 29.574 50.228V74.0341H46.1089C52.3019 74.0341 57.381 68.9994 57.381 62.7216V6.2832H40.907Z" fill="url(#paint3_linear)"/>
<path d="M72.058 6.2832C65.865 6.2832 60.787 11.3179 60.787 17.5957V32.3891C63.636 29.9649 68.59 28.411 76.579 28.784C80.853 28.9704 85.436 30.1514 85.436 30.1514V34.9375C83.144 33.7565 80.419 32.6998 76.889 32.4512C70.82 32.0161 67.166 34.9996 67.166 40.2208C67.166 45.5041 70.82 48.4877 76.889 47.9904C80.419 47.7418 83.144 46.623 85.436 45.5041V50.2902C85.436 50.2902 80.915 51.4712 76.579 51.6577C68.59 52.0306 63.636 50.4767 60.787 48.0526V74.1584H77.323C83.516 74.1584 88.594 69.1237 88.594 62.8459V6.2832H72.058Z" fill="url(#paint4_linear)"/>
<defs>
<linearGradient id="paint0_linear" x1="91.928" y1="44.5171" x2="119.759" y2="44.5171" gradientUnits="userSpaceOnUse">
<stop stop-color="#007940"/>
<stop offset="0.2285" stop-color="#00873F"/>
<stop offset="0.7433" stop-color="#40A737"/>
<stop offset="1" stop-color="#5CB531"/>
</linearGradient>
<linearGradient id="paint1_linear" x1="91.928" y1="40.1626" x2="119.76" y2="40.1626" gradientUnits="userSpaceOnUse">
<stop stop-color="#007940"/>
<stop offset="0.2285" stop-color="#00873F"/>
<stop offset="0.7433" stop-color="#40A737"/>
<stop offset="1" stop-color="#5CB531"/>
</linearGradient>
<linearGradient id="paint2_linear" x1="91.928" y1="35.4271" x2="119.759" y2="35.4271" gradientUnits="userSpaceOnUse">
<stop stop-color="#007940"/>
<stop offset="0.2285" stop-color="#00873F"/>
<stop offset="0.7433" stop-color="#40A737"/>
<stop offset="1" stop-color="#5CB531"/>
</linearGradient>
<linearGradient id="paint3_linear" x1="29.622" y1="40.1626" x2="57.884" y2="40.1626" gradientUnits="userSpaceOnUse">
<stop stop-color="#1F286F"/>
<stop offset="0.4751" stop-color="#004E94"/>
<stop offset="0.8261" stop-color="#0066B1"/>
<stop offset="1" stop-color="#006FBC"/>
</linearGradient>
<linearGradient id="paint4_linear" x1="60.627" y1="40.1626" x2="88.075" y2="40.1626" gradientUnits="userSpaceOnUse">
<stop stop-color="#6C2C2F"/>
<stop offset="0.1735" stop-color="#882730"/>
<stop offset="0.5731" stop-color="#BE1833"/>
<stop offset="0.8585" stop-color="#DC0436"/>
<stop offset="1" stop-color="#E60039"/>
</linearGradient>
</defs>
</svg>
