<svg width="150" height="80" viewBox="0 0 150 80" fill="none" xmlns="http://www.w3.org/2000/svg">
<path d="M86.202 8.62109H63.129V49.9375H86.202V8.62109Z" fill="#FF5F00"/>
<path d="M64.594 29.279C64.594 20.8843 68.55 13.4386 74.629 8.6208C70.161 5.11693 64.521 3 58.368 3C43.793 3 32 14.7525 32 29.279C32 43.8054 43.793 55.558 58.368 55.558C64.521 55.558 70.161 53.4411 74.629 49.9372C68.55 45.1924 64.594 37.6737 64.594 29.279Z" fill="#EB001B"/>
<path d="M117.332 29.279C117.332 43.8054 105.539 55.558 90.963 55.558C84.811 55.558 79.171 53.4411 74.703 49.9372C80.855 45.1194 84.737 37.6737 84.737 29.279C84.737 20.8843 80.782 13.4386 74.703 8.6208C79.171 5.11693 84.811 3 90.963 3C105.539 3 117.332 14.8255 117.332 29.279Z" fill="#F79E1B"/>
<path d="M32.34 76.2362V69.6186C32.34 67.0818 30.753 65.4274 28.033 65.4274C26.673 65.4274 25.2 65.8685 24.18 67.3024C23.387 66.0891 22.253 65.4274 20.553 65.4274C19.42 65.4274 18.287 65.7583 17.38 66.9715V65.648H15V76.2362H17.38V70.3906C17.38 68.5156 18.4 67.6332 19.987 67.6332C21.573 67.6332 22.367 68.6259 22.367 70.3906V76.2362H24.747V70.3906C24.747 68.5156 25.88 67.6332 27.353 67.6332C28.94 67.6332 29.733 68.6259 29.733 70.3906V76.2362H32.34ZM67.587 65.648H63.733V62.4494H61.353V65.648H59.2V67.7435H61.353V72.5965C61.353 75.023 62.373 76.4568 65.093 76.4568C66.113 76.4568 67.247 76.1259 68.04 75.6847L67.36 73.6994C66.68 74.1406 65.887 74.2509 65.32 74.2509C64.187 74.2509 63.733 73.5892 63.733 72.4862V67.7435H67.587V65.648ZM87.76 65.4274C86.4 65.4274 85.493 66.0891 84.927 66.9715V65.648H82.547V76.2362H84.927V70.2803C84.927 68.5156 85.72 67.523 87.193 67.523C87.647 67.523 88.213 67.6332 88.667 67.7435L89.347 65.5377C88.893 65.4274 88.213 65.4274 87.76 65.4274ZM57.273 66.5303C56.14 65.7582 54.553 65.4274 52.853 65.4274C50.133 65.4274 48.32 66.7509 48.32 68.8465C48.32 70.6112 49.68 71.6039 52.06 71.9347L53.193 72.045C54.44 72.2656 55.12 72.5965 55.12 73.148C55.12 73.92 54.213 74.4715 52.627 74.4715C51.04 74.4715 49.793 73.92 49 73.3686L47.867 75.1333C49.113 76.0156 50.813 76.4568 52.513 76.4568C55.687 76.4568 57.5 75.023 57.5 73.0377C57.5 71.1627 56.027 70.17 53.76 69.8391L52.627 69.7289C51.607 69.6186 50.813 69.398 50.813 68.7362C50.813 67.9641 51.607 67.523 52.853 67.523C54.213 67.523 55.573 68.0744 56.253 68.4053L57.273 66.5303ZM120.513 65.4274C119.153 65.4274 118.247 66.0891 117.68 66.9715V65.648H115.3V76.2362H117.68V70.2803C117.68 68.5156 118.473 67.523 119.947 67.523C120.4 67.523 120.967 67.6332 121.42 67.7435L122.1 65.5377C121.647 65.4274 120.967 65.4274 120.513 65.4274ZM90.14 70.9421C90.14 74.1406 92.407 76.4568 95.92 76.4568C97.507 76.4568 98.64 76.1259 99.773 75.2436L98.64 73.3686C97.733 74.0303 96.827 74.3612 95.807 74.3612C93.88 74.3612 92.52 73.0377 92.52 70.9421C92.52 68.9568 93.88 67.6333 95.807 67.523C96.827 67.523 97.733 67.8539 98.64 68.5156L99.773 66.6406C98.64 65.7582 97.507 65.4274 95.92 65.4274C92.407 65.4274 90.14 67.7435 90.14 70.9421ZM112.127 70.9421V65.648H109.747V66.9715C108.953 65.9789 107.82 65.4274 106.347 65.4274C103.287 65.4274 100.907 67.7435 100.907 70.9421C100.907 74.1406 103.287 76.4568 106.347 76.4568C107.933 76.4568 109.067 75.9053 109.747 74.9127V76.2362H112.127V70.9421ZM103.4 70.9421C103.4 69.0671 104.647 67.523 106.687 67.523C108.613 67.523 109.973 68.9568 109.973 70.9421C109.973 72.8171 108.613 74.3612 106.687 74.3612C104.647 74.2509 103.4 72.8171 103.4 70.9421ZM74.953 65.4274C71.78 65.4274 69.513 67.6332 69.513 70.9421C69.513 74.2509 71.78 76.4568 75.067 76.4568C76.653 76.4568 78.24 76.0156 79.487 75.023L78.353 73.3686C77.447 74.0303 76.313 74.4715 75.18 74.4715C73.707 74.4715 72.233 73.8098 71.893 71.9347H79.94C79.94 71.6039 79.94 71.3833 79.94 71.0524C80.053 67.6332 78.013 65.4274 74.953 65.4274ZM74.953 67.4127C76.427 67.4127 77.447 68.295 77.673 69.9494H72.007C72.233 68.5156 73.253 67.4127 74.953 67.4127ZM134 70.9421V61.4568H131.62V66.9715C130.827 65.9789 129.693 65.4274 128.22 65.4274C125.16 65.4274 122.78 67.7435 122.78 70.9421C122.78 74.1406 125.16 76.4568 128.22 76.4568C129.807 76.4568 130.94 75.9053 131.62 74.9127V76.2362H134V70.9421ZM125.273 70.9421C125.273 69.0671 126.52 67.523 128.56 67.523C130.487 67.523 131.847 68.9568 131.847 70.9421C131.847 72.8171 130.487 74.3612 128.56 74.3612C126.52 74.2509 125.273 72.8171 125.273 70.9421ZM45.713 70.9421V65.648H43.333V66.9715C42.54 65.9789 41.407 65.4274 39.933 65.4274C36.873 65.4274 34.493 67.7435 34.493 70.9421C34.493 74.1406 36.873 76.4568 39.933 76.4568C41.52 76.4568 42.653 75.9053 43.333 74.9127V76.2362H45.713V70.9421ZM36.873 70.9421C36.873 69.0671 38.12 67.523 40.16 67.523C42.087 67.523 43.447 68.9568 43.447 70.9421C43.447 72.8171 42.087 74.3612 40.16 74.3612C38.12 74.2509 36.873 72.8171 36.873 70.9421Z" fill="black"/>
</svg>
