<svg width="150" height="80" viewBox="0 0 150 80" fill="none" xmlns="http://www.w3.org/2000/svg">
<path fill-rule="evenodd" clip-rule="evenodd" d="M13.8711 20.007C15.2111 19.999 19.1938 19.6424 20.8807 25.3027C22.0171 29.1156 23.8272 35.3614 26.3112 44.0399H27.3228C29.9867 34.8903 31.8166 28.6446 32.8126 25.3027C34.5172 19.5834 38.7786 20.0071 40.4831 20.0071H53.6341V60.6779H40.2302V36.7099H39.3314L31.8594 60.6779H21.7747L14.3027 36.6922H13.4039V60.6779H0V20.0071L13.8711 20.007ZM72.8817 20.0071V43.9929H73.951L83.04 24.2695C84.8043 20.3445 88.5647 20.0071 88.5647 20.0071H101.536V60.678H87.8518V36.6922H86.7825L77.8718 56.4156C76.1075 60.3228 72.1688 60.678 72.1688 60.678H59.1979V20.0071H72.8817ZM148.833 39.3342C146.924 44.7116 140.93 48.5628 134.293 48.5628H119.944V60.678H106.931V39.3342H148.833Z" fill="#0F754E"/>
<path fill-rule="evenodd" clip-rule="evenodd" d="M134.921 20.0071H106.249C106.931 29.0618 114.775 36.8132 122.894 36.8132H149.737C151.286 29.2877 145.953 20.0071 134.921 20.0071Z" fill="url(#paint0_linear)"/>
<defs>
<linearGradient id="paint0_linear" x1="150" y1="30.5788" x2="106.249" y2="30.5788" gradientUnits="userSpaceOnUse">
<stop stop-color="#1F5CD7"/>
<stop offset="1" stop-color="#02AEFF"/>
</linearGradient>
</defs>
</svg>
