<svg width="150" height="80" viewBox="0 0 150 80" fill="none" xmlns="http://www.w3.org/2000/svg">
<path d="M65.561 63.0502H53.866L61.181 17.8198H72.876L65.561 63.0502Z" fill="#00579F"/>
<path d="M107.957 18.9256C105.65 18.0105 101.992 17 97.468 17C85.918 17 77.785 23.1587 77.735 31.9638C77.64 38.4602 83.558 42.0684 87.985 44.2345C92.51 46.448 94.048 47.8927 94.048 49.8656C94.002 52.8958 90.392 54.2925 87.025 54.2925C82.355 54.2925 79.854 53.5724 76.052 51.8866L74.512 51.1639L72.875 61.3171C75.618 62.5668 80.672 63.6757 85.918 63.7243C98.19 63.7243 106.179 57.6609 106.273 48.2777C106.32 43.1288 103.195 39.1835 96.457 35.9596C92.366 33.8901 89.861 32.4946 89.861 30.3771C89.909 28.4521 91.98 26.4804 96.597 26.4804C100.399 26.3839 103.193 27.2978 105.309 28.2123L106.367 28.6926L107.957 18.9256Z" fill="#00579F"/>
<path d="M123.501 47.0267C124.464 44.4283 128.17 34.3716 128.17 34.3716C128.122 34.4682 129.132 31.7252 129.709 30.0413L130.526 33.9386C130.526 33.9386 132.741 44.7653 133.222 47.0267C131.394 47.0267 125.811 47.0267 123.501 47.0267ZM137.937 17.8198H128.891C126.101 17.8198 123.982 18.6371 122.778 21.5726L105.407 63.0496H117.678C117.678 63.0496 119.698 57.4671 120.133 56.2648C121.479 56.2648 133.416 56.2648 135.148 56.2648C135.484 57.8527 136.544 63.0496 136.544 63.0496H147.372L137.937 17.8198Z" fill="#00579F"/>
<path d="M44.098 17.8198L32.645 48.6626L31.393 42.4073C29.275 35.1896 22.635 27.3476 15.224 23.4484L25.715 63.0022H38.082L56.465 17.8198H44.098Z" fill="#00579F"/>
<path d="M22.009 17.8198H3.192L3 18.7337C17.678 22.4871 27.399 31.5346 31.393 42.4093L27.302 21.6219C26.629 18.7331 24.559 17.9151 22.009 17.8198Z" fill="#FAA61A"/>
</svg>
