<svg width="14" height="14" viewBox="0 0 14 14" fill="none" xmlns="http://www.w3.org/2000/svg">
<path d="M12.4406 2.89612L10.8897 1.3466C10.7803 1.23671 10.6502 1.14953 10.507 1.09004C10.3638 1.03056 10.2103 0.999963 10.0552 1C9.73919 1 9.44211 1.12379 9.2193 1.3466L7.55039 3.01553C7.4405 3.12494 7.35331 3.25498 7.29383 3.39819C7.23435 3.54139 7.20375 3.69493 7.20379 3.85C7.20379 4.16602 7.32758 4.46311 7.55039 4.68592L8.77076 5.90631C8.4851 6.53596 8.08794 7.10877 7.59845 7.59709C7.11018 8.08777 6.53743 8.48639 5.90769 8.77379L4.68732 7.5534C4.57792 7.44351 4.44788 7.35632 4.30468 7.29684C4.16148 7.23736 4.00793 7.20676 3.85287 7.2068C3.53686 7.2068 3.23977 7.33058 3.01696 7.5534L1.3466 9.22087C1.23658 9.33048 1.14931 9.46077 1.08983 9.60423C1.03035 9.74769 0.99982 9.90149 1 10.0568C1 10.3728 1.12379 10.6699 1.3466 10.8927L2.89463 12.4408C3.24997 12.7976 3.74074 13 4.24461 13C4.35092 13 4.45286 12.9913 4.55335 12.9738C6.51642 12.6505 8.46348 11.6063 10.0348 10.0364C11.6047 8.46796 12.6474 6.52233 12.9751 4.5534C13.0741 3.95194 12.8746 3.33301 12.4406 2.89612V2.89612Z" stroke="#93A0B9" stroke-width="1.4"/>
</svg>
