<svg width="67" height="66" viewBox="0 0 67 66" fill="none" xmlns="http://www.w3.org/2000/svg">
<path d="M64.9467 66C64.0749 66 63.3426 65.2735 63.3426 64.4086C63.3426 63.5437 64.0749 62.8172 64.9467 62.8172C65.8185 62.8172 66.5508 63.5437 66.5508 64.4086C66.5508 65.2735 65.8185 66 64.9467 66Z" fill="#ED6B6A"/>
<path d="M49.249 34.5914C48.3773 34.5914 47.645 33.8649 47.645 33C47.645 32.1351 48.3773 31.4086 49.249 31.4086C50.1208 31.4086 50.8531 32.1351 50.8531 33C50.8531 33.8995 50.1208 34.5914 49.249 34.5914Z" fill="#ED6B6A"/>
<path d="M64.9467 34.5914C64.0749 34.5914 63.3426 33.8649 63.3426 33C63.3426 32.1351 64.0749 31.4086 64.9467 31.4086C65.8185 31.4086 66.5508 32.1351 66.5508 33C66.5508 33.8995 65.8185 34.5914 64.9467 34.5914Z" fill="#ED6B6A"/>
<path d="M64.9467 18.8871C64.0749 18.8871 63.3426 18.1606 63.3426 17.2957C63.3426 16.4308 64.0749 15.7043 64.9467 15.7043C65.8185 15.7043 66.5508 16.4308 66.5508 17.2957C66.5508 18.1606 65.8185 18.8871 64.9467 18.8871Z" fill="#ED6B6A"/>
<path d="M2.15487 66C1.28308 66 0.550781 65.2735 0.550781 64.4086C0.550781 63.5437 1.28308 62.8172 2.15487 62.8172C3.02665 62.8172 3.75895 63.5437 3.75895 64.4086C3.75895 65.2735 3.06152 66 2.15487 66Z" fill="#ED6B6A"/>
<path d="M17.8525 66C16.9807 66 16.2484 65.2735 16.2484 64.4086C16.2484 63.5437 16.9807 62.8172 17.8525 62.8172C18.7243 62.8172 19.4566 63.5437 19.4566 64.4086C19.4566 65.2735 18.7243 66 17.8525 66Z" fill="#ED6B6A"/>
<path d="M33.5502 66C32.6784 66 31.9461 65.2735 31.9461 64.4086C31.9461 63.5437 32.6784 62.8172 33.5502 62.8172C34.422 62.8172 35.1543 63.5437 35.1543 64.4086C35.1891 65.2735 34.4568 66 33.5502 66Z" fill="#ED6B6A"/>
<path d="M49.249 66C48.3773 66 47.645 65.2735 47.645 64.4086C47.645 63.5437 48.3773 62.8172 49.249 62.8172C50.1208 62.8172 50.8531 63.5437 50.8531 64.4086C50.8531 65.2735 50.1208 66 49.249 66Z" fill="#ED6B6A"/>
<path d="M49.249 50.2957C48.3773 50.2957 47.645 49.5692 47.645 48.7043C47.645 47.8394 48.3773 47.1129 49.249 47.1129C50.1208 47.1129 50.8531 47.8394 50.8531 48.7043C50.8531 49.5692 50.1208 50.2957 49.249 50.2957Z" fill="#ED6B6A"/>
<path d="M64.9467 50.2957C64.0749 50.2957 63.3426 49.5692 63.3426 48.7043C63.3426 47.8394 64.0749 47.1129 64.9467 47.1129C65.8185 47.1129 66.5508 47.8394 66.5508 48.7043C66.5508 49.5692 65.8185 50.2957 64.9467 50.2957Z" fill="#ED6B6A"/>
<path d="M49.249 3.18276C48.3773 3.18276 47.645 2.45626 47.645 1.59138C47.645 0.7265 48.3773 0 49.249 0C50.1208 0 50.8531 0.7265 50.8531 1.59138C50.8531 2.45626 50.1208 3.18276 49.249 3.18276Z" fill="#ED6B6A"/>
<path d="M64.9467 3.18276C64.0749 3.18276 63.3426 2.45626 63.3426 1.59138C63.3426 0.7265 64.0749 0 64.9467 0C65.8185 0 66.5508 0.7265 66.5508 1.59138C66.5508 2.45626 65.8185 3.18276 64.9467 3.18276Z" fill="#ED6B6A"/>
<path d="M49.249 18.8871C48.3773 18.8871 47.645 18.1606 47.645 17.2957C47.645 16.4308 48.3773 15.7043 49.249 15.7043C50.1208 15.7043 50.8531 16.4308 50.8531 17.2957C50.8531 18.1606 50.1208 18.8871 49.249 18.8871Z" fill="#ED6B6A"/>
</svg>
