<svg width="100" height="100" viewBox="0 0 100 100" fill="none" xmlns="http://www.w3.org/2000/svg">
<circle cx="50" cy="50" r="50" fill="#ED6EA7"/>
<path d="M38.544 47.8846V52.1154L25 57.1154V53.1044L33.7637 50L25 46.8956V42.8846L38.544 47.8846Z" fill="white"/>
<path d="M57.263 40.3846V43.7912L50.4773 59.6154H44.5433L51.0268 44.6978H45.9718V47.6648H41.329V40.3846H57.263Z" fill="white"/>
<path d="M67.4912 60C65.8428 60 64.3776 59.6062 63.0956 58.8187C61.8135 58.0311 60.8062 56.8864 60.0736 55.3846C59.3593 53.8645 59.0022 52.0696 59.0022 50C59.0022 47.9304 59.3593 46.1447 60.0736 44.6429C60.8062 43.1227 61.8135 41.9689 63.0956 41.1813C64.3776 40.3938 65.8428 40 67.4912 40C69.1212 40 70.5773 40.3938 71.8593 41.1813C73.1414 41.9689 74.1395 43.1227 74.8538 44.6429C75.5864 46.1447 75.9527 47.9304 75.9527 50C75.9527 52.0696 75.5864 53.8645 74.8538 55.3846C74.1395 56.8864 73.1414 58.0311 71.8593 58.8187C70.5773 59.6062 69.1212 60 67.4912 60ZM67.4912 55.5495C68.4069 55.5495 69.1304 55.1099 69.6615 54.2308C70.211 53.3333 70.4857 51.9231 70.4857 50C70.4857 48.0769 70.211 46.6758 69.6615 45.7967C69.1304 44.8993 68.4069 44.4505 67.4912 44.4505C66.5571 44.4505 65.8154 44.8993 65.2659 45.7967C64.7348 46.6758 64.4692 48.0769 64.4692 50C64.4692 51.9231 64.7348 53.3333 65.2659 54.2308C65.8154 55.1099 66.5571 55.5495 67.4912 55.5495Z" fill="white"/>
</svg>
