<svg width="100" height="100" viewBox="0 0 100 100" fill="none" xmlns="http://www.w3.org/2000/svg">
<circle cx="50" cy="50" r="50" fill="#EC6608"/>
<path d="M26.011 40.3846V59.6154H20.5714V44.5879H17V40.3846H26.011Z" fill="white"/>
<path d="M44.3152 55.3022V59.6154H29.3427V56.2088L36.5405 49.478C37.2364 48.8187 37.7035 48.2601 37.9416 47.8022C38.1797 47.326 38.2987 46.8498 38.2987 46.3736C38.2987 45.7509 38.0881 45.2656 37.6669 44.9176C37.2456 44.5696 36.6321 44.3956 35.8262 44.3956C35.1119 44.3956 34.4526 44.5604 33.8482 44.8901C33.2621 45.2015 32.7767 45.6593 32.3921 46.2637L28.3537 44.011C29.1046 42.7656 30.1577 41.7857 31.513 41.0714C32.8683 40.3571 34.4709 40 36.3207 40C37.7859 40 39.0771 40.2381 40.1943 40.7143C41.3299 41.1905 42.209 41.8773 42.8317 42.7747C43.4727 43.6538 43.7932 44.6795 43.7932 45.8516C43.7932 46.8956 43.5643 47.8846 43.1064 48.8187C42.6669 49.7344 41.806 50.7784 40.524 51.9505L36.8976 55.3022H44.3152Z" fill="white"/>
<path d="M54.9102 60C53.2618 60 51.7966 59.6062 50.5145 58.8187C49.2325 58.0311 48.2252 56.8864 47.4926 55.3846C46.7783 53.8645 46.4211 52.0696 46.4211 50C46.4211 47.9304 46.7783 46.1447 47.4926 44.6429C48.2252 43.1227 49.2325 41.9689 50.5145 41.1813C51.7966 40.3938 53.2618 40 54.9102 40C56.5402 40 57.9962 40.3938 59.2783 41.1813C60.5603 41.9689 61.5585 43.1227 62.2728 44.6429C63.0054 46.1447 63.3717 47.9304 63.3717 50C63.3717 52.0696 63.0054 53.8645 62.2728 55.3846C61.5585 56.8864 60.5603 58.0311 59.2783 58.8187C57.9962 59.6062 56.5402 60 54.9102 60ZM54.9102 55.5495C55.8259 55.5495 56.5493 55.1099 57.0805 54.2308C57.6299 53.3333 57.9047 51.9231 57.9047 50C57.9047 48.0769 57.6299 46.6758 57.0805 45.7967C56.5493 44.8993 55.8259 44.4505 54.9102 44.4505C53.9761 44.4505 53.2343 44.8993 52.6849 45.7967C52.1537 46.6758 51.8882 48.0769 51.8882 50C51.8882 51.9231 52.1537 53.3333 52.6849 54.2308C53.2343 55.1099 53.9761 55.5495 54.9102 55.5495Z" fill="white"/>
<path d="M74.2665 60C72.6181 60 71.1529 59.6062 69.8709 58.8187C68.5888 58.0311 67.5815 56.8864 66.8489 55.3846C66.1346 53.8645 65.7775 52.0696 65.7775 50C65.7775 47.9304 66.1346 46.1447 66.8489 44.6429C67.5815 43.1227 68.5888 41.9689 69.8709 41.1813C71.1529 40.3938 72.6181 40 74.2665 40C75.8965 40 77.3526 40.3938 78.6346 41.1813C79.9167 41.9689 80.9148 43.1227 81.6291 44.6429C82.3617 46.1447 82.728 47.9304 82.728 50C82.728 52.0696 82.3617 53.8645 81.6291 55.3846C80.9148 56.8864 79.9167 58.0311 78.6346 58.8187C77.3526 59.6062 75.8965 60 74.2665 60ZM74.2665 55.5495C75.1822 55.5495 75.9057 55.1099 76.4368 54.2308C76.9863 53.3333 77.261 51.9231 77.261 50C77.261 48.0769 76.9863 46.6758 76.4368 45.7967C75.9057 44.8993 75.1822 44.4505 74.2665 44.4505C73.3324 44.4505 72.5907 44.8993 72.0412 45.7967C71.5101 46.6758 71.2445 48.0769 71.2445 50C71.2445 51.9231 71.5101 53.3333 72.0412 54.2308C72.5907 55.1099 73.3324 55.5495 74.2665 55.5495Z" fill="white"/>
</svg>
