<svg width="100" height="100" viewBox="0 0 100 100" fill="none" xmlns="http://www.w3.org/2000/svg">
<circle cx="50" cy="50" r="50" fill="#951B81"/>
<path d="M41.8095 47.6471V51.9608L28 57.0588V52.9692L36.9356 49.8039L28 46.6387V42.549L41.8095 47.6471Z" fill="white"/>
<path d="M53.3606 40V59.6078H47.8144V44.2857H44.173V40H53.3606Z" fill="white"/>
<path d="M64.2086 47.1429C66.9537 47.1429 68.9799 47.7031 70.2871 48.8235C71.6129 49.944 72.2759 51.4379 72.2759 53.3053C72.2759 54.5191 71.9584 55.6396 71.3235 56.6667C70.7072 57.6751 69.7549 58.4874 68.4663 59.1036C67.1965 59.7012 65.6185 60 63.7324 60C62.3506 60 60.978 59.8319 59.6148 59.4958C58.2703 59.1597 57.1125 58.6835 56.1414 58.0672L58.1302 53.8936C58.9145 54.4164 59.7735 54.8179 60.7072 55.098C61.6596 55.3782 62.612 55.5182 63.5644 55.5182C64.5168 55.5182 65.2731 55.3408 65.8333 54.986C66.4122 54.6125 66.7016 54.099 66.7016 53.4454C66.7016 52.7918 66.4215 52.2969 65.8613 51.9608C65.3011 51.6246 64.3113 51.4566 62.8921 51.4566H57.57L58.5504 40H71.0434V44.2857H63.1442L62.8921 47.1429H64.2086Z" fill="white"/>
</svg>
