<svg width="100" height="100" viewBox="0 0 100 100" fill="none" xmlns="http://www.w3.org/2000/svg">
<circle cx="50" cy="50" r="50" fill="#E2131F"/>
<path d="M58.2745 55.6022V60H43.0084V56.5266L50.3473 49.6639C51.057 48.9916 51.5331 48.422 51.7759 47.9552C52.0187 47.4697 52.1401 46.9841 52.1401 46.4986C52.1401 45.8637 51.9253 45.3688 51.4958 45.014C51.0663 44.6592 50.4407 44.4818 49.619 44.4818C48.8908 44.4818 48.2185 44.6499 47.6022 44.986C47.0047 45.3035 46.5098 45.7703 46.1176 46.3866L42 44.0896C42.7656 42.8198 43.8394 41.8207 45.2213 41.0924C46.6032 40.3641 48.2372 40 50.1232 40C51.6172 40 52.9337 40.2428 54.0728 40.7283C55.2306 41.2138 56.127 41.9141 56.7619 42.8291C57.4155 43.7255 57.7423 44.7712 57.7423 45.9664C57.7423 47.0308 57.5089 48.0392 57.042 48.9916C56.5938 49.9253 55.7162 50.9897 54.409 52.1849L50.7115 55.6022H58.2745Z" fill="white"/>
</svg>
