<svg width="100" height="100" viewBox="0 0 100 100" fill="none" xmlns="http://www.w3.org/2000/svg">
<circle cx="50" cy="50" r="50" fill="#E2131F"/>
<path d="M29.5013 40C32.2573 40 34.4292 40.815 36.017 42.4451C37.6049 44.0751 38.3988 46.4194 38.3988 49.478C38.3988 51.6758 37.9699 53.5714 37.1121 55.1648C36.2726 56.7399 35.0771 57.9396 33.5257 58.7637C31.9926 59.5879 30.2131 60 28.1872 60C27.1104 60 26.0792 59.8718 25.0936 59.6154C24.108 59.3773 23.2685 59.0385 22.5749 58.5989L24.5461 54.6978C25.4769 55.3571 26.6541 55.6868 28.0777 55.6868C29.4465 55.6868 30.5508 55.3114 31.3903 54.5604C32.2481 53.7912 32.75 52.6832 32.8961 51.2363C31.801 52.1703 30.3682 52.6374 28.5979 52.6374C27.3933 52.6374 26.2891 52.3901 25.2852 51.8956C24.2814 51.3828 23.4784 50.6685 22.8761 49.7527C22.292 48.8187 22 47.7564 22 46.5659C22 45.2656 22.3285 44.1209 22.9856 43.1319C23.6609 42.1245 24.5643 41.3553 25.6959 40.8242C26.8457 40.2747 28.1142 40 29.5013 40ZM29.8846 48.7363C30.6694 48.7363 31.3082 48.5165 31.801 48.0769C32.2938 47.619 32.5402 47.0238 32.5402 46.2912C32.5402 45.5769 32.2938 45 31.801 44.5604C31.3264 44.1026 30.6785 43.8736 29.8572 43.8736C29.0906 43.8736 28.461 44.0934 27.9682 44.533C27.4937 44.9725 27.2564 45.5678 27.2564 46.3187C27.2564 47.0513 27.4937 47.6374 27.9682 48.0769C28.461 48.5165 29.0998 48.7363 29.8846 48.7363Z" fill="white"/>
<path d="M49.2788 60C47.6362 60 46.1761 59.6062 44.8985 58.8187C43.6209 58.0311 42.6171 56.8864 41.887 55.3846C41.1752 53.8645 40.8193 52.0696 40.8193 50C40.8193 47.9304 41.1752 46.1447 41.887 44.6429C42.6171 43.1227 43.6209 41.9689 44.8985 41.1813C46.1761 40.3938 47.6362 40 49.2788 40C50.9032 40 52.3542 40.3938 53.6318 41.1813C54.9094 41.9689 55.9041 43.1227 56.6159 44.6429C57.3459 46.1447 57.711 47.9304 57.711 50C57.711 52.0696 57.3459 53.8645 56.6159 55.3846C55.9041 56.8864 54.9094 58.0311 53.6318 58.8187C52.3542 59.6062 50.9032 60 49.2788 60ZM49.2788 55.5495C50.1914 55.5495 50.9123 55.1099 51.4416 54.2308C51.9892 53.3333 52.2629 51.9231 52.2629 50C52.2629 48.0769 51.9892 46.6758 51.4416 45.7967C50.9123 44.8993 50.1914 44.4505 49.2788 44.4505C48.348 44.4505 47.6088 44.8993 47.0613 45.7967C46.532 46.6758 46.2674 48.0769 46.2674 50C46.2674 51.9231 46.532 53.3333 47.0613 54.2308C47.6088 55.1099 48.348 55.5495 49.2788 55.5495Z" fill="white"/>
<path d="M68.5679 60C66.9253 60 65.4652 59.6062 64.1876 58.8187C62.91 58.0311 61.9061 56.8864 61.1761 55.3846C60.4643 53.8645 60.1084 52.0696 60.1084 50C60.1084 47.9304 60.4643 46.1447 61.1761 44.6429C61.9061 43.1227 62.91 41.9689 64.1876 41.1813C65.4652 40.3938 66.9253 40 68.5679 40C70.1923 40 71.6432 40.3938 72.9208 41.1813C74.1984 41.9689 75.1931 43.1227 75.9049 44.6429C76.635 46.1447 77 47.9304 77 50C77 52.0696 76.635 53.8645 75.9049 55.3846C75.1931 56.8864 74.1984 58.0311 72.9208 58.8187C71.6432 59.6062 70.1923 60 68.5679 60ZM68.5679 55.5495C69.4804 55.5495 70.2014 55.1099 70.7307 54.2308C71.2782 53.3333 71.552 51.9231 71.552 50C71.552 48.0769 71.2782 46.6758 70.7307 45.7967C70.2014 44.8993 69.4804 44.4505 68.5679 44.4505C67.6371 44.4505 66.8979 44.8993 66.3503 45.7967C65.8211 46.6758 65.5564 48.0769 65.5564 50C65.5564 51.9231 65.8211 53.3333 66.3503 54.2308C66.8979 55.1099 67.6371 55.5495 68.5679 55.5495Z" fill="white"/>
</svg>
