<svg width="15" height="20" viewBox="0 0 15 20" fill="none" xmlns="http://www.w3.org/2000/svg">
<path fill-rule="evenodd" clip-rule="evenodd" d="M7.5 5.92963C6.67157 5.92963 6 6.59332 6 7.41203C6 8.23074 6.67157 8.89444 7.5 8.89444C8.32843 8.89444 9 8.23074 9 7.41203C9 6.59332 8.32843 5.92963 7.5 5.92963ZM4 7.41203C4 5.50171 5.567 3.95308 7.5 3.95308C9.433 3.95308 11 5.50171 11 7.41203C11 9.32236 9.433 10.871 7.5 10.871C5.567 10.871 4 9.32236 4 7.41203Z" fill="#DCE7FD"/>
<path fill-rule="evenodd" clip-rule="evenodd" d="M7.5 1.97654C4.48123 1.97654 2 4.44955 2 7.54207C2 10.4971 3.47074 13.0898 5.02813 14.9965C5.79977 15.9413 6.57313 16.6934 7.15284 17.2083C7.27868 17.32 7.39508 17.4204 7.5 17.5088C7.60492 17.4204 7.72132 17.32 7.84716 17.2083C8.42687 16.6934 9.20023 15.9413 9.97187 14.9965C11.5293 13.0898 13 10.4971 13 7.54207C13 4.44955 10.5188 1.97654 7.5 1.97654ZM7.5 18.7771C6.91105 19.5758 6.91076 19.5756 6.91045 19.5754L6.90775 19.5735L6.90209 19.5693L6.88382 19.556C6.8686 19.5448 6.84737 19.529 6.82053 19.5088C6.76686 19.4683 6.69069 19.4099 6.59524 19.3343C6.40443 19.1831 6.13603 18.9627 5.81591 18.6783C5.17687 18.1107 4.32523 17.2828 3.47187 16.238C1.77926 14.1657 0 11.1408 0 7.54207C0 3.39546 3.33907 0 7.5 0C11.6609 0 15 3.39546 15 7.54207C15 11.1408 13.2207 14.1657 11.5281 16.238C10.6748 17.2828 9.82313 18.1107 9.18409 18.6783C8.86397 18.9627 8.59557 19.1831 8.40476 19.3343C8.30931 19.4099 8.23314 19.4683 8.17947 19.5088C8.15263 19.529 8.1314 19.5448 8.11618 19.556L8.09791 19.5693L8.09225 19.5735L8.0903 19.5749C8.08999 19.5751 8.08895 19.5758 7.5 18.7771ZM7.5 18.7771L8.08895 19.5758L7.5 20L6.91045 19.5754L7.5 18.7771Z" fill="#DCE7FD"/>
</svg>
