<svg width="18" height="18" viewBox="0 0 18 18" fill="none" xmlns="http://www.w3.org/2000/svg">
<path fill-rule="evenodd" clip-rule="evenodd" d="M0 1C0 0.447715 0.447715 0 1 0H17C17.5523 0 18 0.447715 18 1V17C18 17.5523 17.5523 18 17 18H1C0.447715 18 0 17.5523 0 17V1ZM2 2V16H16V2H2Z" fill="#DCE7FD"/>
<path fill-rule="evenodd" clip-rule="evenodd" d="M4 12V14H10V12H4Z" fill="#DCE7FD"/>
<path fill-rule="evenodd" clip-rule="evenodd" d="M4 8V10H10V8H4Z" fill="#DCE7FD"/>
<path fill-rule="evenodd" clip-rule="evenodd" d="M4 4V6H10V4H4Z" fill="#DCE7FD"/>
<path fill-rule="evenodd" clip-rule="evenodd" d="M12 12V14H14V12H12Z" fill="#DCE7FD"/>
<path fill-rule="evenodd" clip-rule="evenodd" d="M12 8V10H14V8H12Z" fill="#DCE7FD"/>
<path fill-rule="evenodd" clip-rule="evenodd" d="M12 4V6H14V4H12Z" fill="#DCE7FD"/>
</svg>
