<svg width="18" height="18" viewBox="0 0 18 18" fill="none" xmlns="http://www.w3.org/2000/svg">
<path fill-rule="evenodd" clip-rule="evenodd" d="M0 1C0 0.447715 0.447715 0 1 0H17C17.5523 0 18 0.447715 18 1V17C18 17.5523 17.5523 18 17 18H1C0.447715 18 0 17.5523 0 17V1ZM2 2V16H16V2H2Z" fill="#DCE7FD"/>
<path d="M4 4H6V6H4V4Z" fill="#DCE7FD"/>
<path d="M8 4H10V6H8V4Z" fill="#DCE7FD"/>
<path d="M12 4H14V6H12V4Z" fill="#DCE7FD"/>
<path d="M4 8H6V10H4V8Z" fill="#DCE7FD"/>
<path d="M8 8H10V10H8V8Z" fill="#DCE7FD"/>
<path d="M4 12H6V14H4V12Z" fill="#DCE7FD"/>
<path d="M8 12H10V14H8V12Z" fill="#DCE7FD"/>
</svg>
