<svg width="57" height="57" viewBox="0 0 57 57" fill="none" xmlns="http://www.w3.org/2000/svg">
<path d="M6.06983 5.04619C5.45519 5.04619 4.95666 5.54466 4.95666 6.15948C4.95666 6.7743 5.45508 7.27278 6.06983 7.27278H6.08097C6.69561 7.27278 7.18857 6.7743 7.18857 6.15948C7.18857 5.54466 6.68459 5.04619 6.06983 5.04619Z" fill="white"/>
<path d="M11.4075 5.04619C10.7928 5.04619 10.2943 5.54466 10.2943 6.15948C10.2943 6.7743 10.7927 7.27278 11.4075 7.27278H11.4185C12.0331 7.27278 12.5262 6.7743 12.5262 6.15948C12.5262 5.54466 12.0222 5.04619 11.4075 5.04619Z" fill="white"/>
<path d="M16.7451 5.04619C16.1304 5.04619 15.6319 5.54466 15.6319 6.15948C15.6319 6.7743 16.1303 7.27278 16.7451 7.27278H16.7561C17.3708 7.27278 17.8637 6.7743 17.8637 6.15948C17.8637 5.54466 17.3598 5.04619 16.7451 5.04619Z" fill="white"/>
<path d="M44.0484 5.04619H30.5398C29.9251 5.04619 29.4266 5.54466 29.4266 6.15948C29.4266 6.7743 29.925 7.27278 30.5398 7.27278H44.0484C44.6631 7.27278 45.1616 6.7743 45.1616 6.15948C45.1616 5.54466 44.6631 5.04619 44.0484 5.04619Z" fill="white"/>
<path d="M26.041 44.1892C25.8338 43.9822 25.5467 43.863 25.254 43.863C24.9613 43.863 24.6741 43.9822 24.4671 44.1892C24.2601 44.3963 24.1408 44.6836 24.1408 44.9763C24.1408 45.269 24.26 45.5563 24.4671 45.7633C24.6741 45.9704 24.9612 46.0896 25.254 46.0896C25.5468 46.0896 25.8339 45.9705 26.041 45.7633C26.2481 45.5563 26.3672 45.2691 26.3672 44.9763C26.3672 44.6835 26.2481 44.3963 26.041 44.1892Z" fill="white"/>
<path d="M50.9889 14.2788V5.56637C50.9889 2.49704 48.4922 0 45.4232 0H5.56574C2.49676 0 0 2.49715 0 5.56648V40.7427C0 43.6911 2.39834 46.0897 5.34631 46.0897H9.52401V46.2704C9.52401 46.6513 9.25293 46.9817 8.87953 47.056L4.68446 47.892C2.35314 48.3567 0.613641 50.2568 0.356027 52.6202L0.0130254 55.766C-0.0212637 56.0804 0.0799336 56.3945 0.291012 56.63C0.50209 56.8655 0.803455 57 1.11963 57H25.2537C25.57 57 25.8713 56.8654 26.0824 56.6299C26.2935 56.3944 26.3946 56.0802 26.3602 55.7658L26.0163 52.619C25.7581 50.2561 24.0187 48.3566 21.6881 47.8921L17.4922 47.056C17.1187 46.9817 16.8477 46.6512 16.8477 46.2704V45.225C16.8477 45.2194 16.847 45.2139 16.8468 45.2082L18.7335 44.1296C18.7543 44.1178 18.7746 44.1052 18.7945 44.092C19.8062 43.4239 20.4705 42.2341 20.5717 40.9093C20.5739 40.881 20.5749 40.8527 20.5749 40.8244V36.2588C21.2401 35.8254 21.7257 35.0376 21.7257 33.6585L21.7275 31.1569C21.7275 31.1155 21.7252 31.0746 21.7208 31.0343C21.6068 28.8312 19.8132 27.1199 17.5946 27.1199H8.13508C7.71983 27.1199 7.33441 26.8999 7.08414 26.7154C6.61534 26.3698 6.00226 26.3179 5.48358 26.58C4.9669 26.8411 4.64595 27.3632 4.64595 27.9427V31.5651C4.64595 32.7955 5.07845 33.9264 5.79853 34.8155V40.8244C5.79853 40.8527 5.79964 40.881 5.80175 40.9093C5.89204 42.0911 6.43844 43.1675 7.28309 43.863H5.34631C3.62596 43.8632 2.22623 42.4635 2.22623 40.7427V17.3749H14.6576C15.2722 17.3749 15.7707 16.8765 15.7707 16.2616C15.7707 15.6468 15.2723 15.1484 14.6576 15.1484H2.22634V12.0311H48.7627V14.2481H30.6926C27.0304 14.2481 24.0508 17.2279 24.0508 20.8905V30.2087C24.0508 33.8714 27.0304 36.8512 30.6926 36.8512H32.0841V40.1063C32.0841 40.5566 32.3554 40.9625 32.7712 41.1348C32.9089 41.1918 33.0537 41.2196 33.197 41.2196C33.4868 41.2196 33.7714 41.1064 33.9844 40.8934L38.0261 36.8511H48.7628V40.7426C48.7628 42.4632 47.3631 43.8631 45.6426 43.8631H29.7835C29.1689 43.8631 28.6703 44.3616 28.6703 44.9764C28.6703 45.5912 29.1687 46.0897 29.7835 46.0897H45.6425C48.5906 46.0897 50.9889 43.691 50.9889 40.7427V36.8206C54.3564 36.5016 57 33.6587 57 30.2089V20.8906C57 17.4407 54.3564 14.5978 50.9889 14.2788ZM17.5678 49.3415L21.2532 50.0758C22.6267 50.3494 23.6513 51.4686 23.8035 52.8607L24.0125 54.7733H2.36094L2.56945 52.8615C2.72119 51.4688 3.74608 50.3494 5.11965 50.0757L8.80539 49.3413C10.0141 50.4182 11.5549 51.0078 13.1867 51.0078C14.8186 51.0078 16.3592 50.4181 17.5678 49.3415ZM11.0373 48.2166C11.4431 47.734 11.6978 47.1264 11.7414 46.4702C12.2018 46.6959 12.6941 46.8105 13.1867 46.8105C13.6788 46.8106 14.1704 46.6962 14.6305 46.471C14.6743 47.1272 14.9293 47.7347 15.3351 48.2172C14.6869 48.5845 13.9521 48.781 13.1867 48.781C12.4211 48.781 11.686 48.5842 11.0373 48.2166ZM18.3488 40.7781C18.2927 41.3848 18.0061 41.9305 17.5931 42.2172L13.8533 44.3553C13.8325 44.3671 13.8123 44.3796 13.7923 44.3928C13.4074 44.647 12.9659 44.6469 12.5812 44.3928C12.5617 44.38 12.5418 44.3676 12.5215 44.356L8.79225 42.2174C8.37187 41.9265 8.08086 41.3806 8.02475 40.778V36.4173C8.58373 36.6248 9.18802 36.7384 9.81825 36.7384H18.3488V40.7781ZM6.87228 31.5653V29.1137C7.28832 29.2675 7.71359 29.3466 8.1353 29.3466H17.5949C18.6334 29.3466 19.4702 30.1598 19.4996 31.1979C19.4999 31.2103 19.5006 31.2227 19.5013 31.2351L19.4996 33.6579C19.4996 33.6581 19.4996 33.6584 19.4996 33.6586C19.4996 34.2222 19.3845 34.3647 19.3713 34.3791C19.3263 34.4283 19.1314 34.5117 18.6863 34.5117H9.81836C8.19375 34.5117 6.87228 33.1901 6.87228 31.5653ZM2.22634 9.80466V5.56648C2.22634 3.7249 3.72437 2.2267 5.56574 2.2267H45.4232C47.2646 2.2267 48.7626 3.7249 48.7626 5.56648V9.80478L2.22634 9.80466ZM54.7737 30.2089C54.7737 32.6438 52.7928 34.6247 50.3582 34.6247H37.5648C37.2695 34.6247 36.9865 34.7421 36.7777 34.9509L34.3103 37.4186V35.738C34.3103 35.1233 33.8119 34.6247 33.1972 34.6247H30.6926C28.258 34.6247 26.2771 32.6438 26.2771 30.2089V20.8906C26.2771 18.4557 28.258 16.4748 30.6926 16.4748H50.3582C52.7928 16.4748 54.7737 18.4557 54.7737 20.8906V30.2089Z" fill="white"/>
<path d="M31.6202 22.1675C29.7788 22.1675 28.2807 23.6657 28.2807 25.5073C28.2807 27.3488 29.7787 28.847 31.6202 28.847C33.4616 28.847 34.9596 27.3488 34.9596 25.5073C34.9596 23.6657 33.4616 22.1675 31.6202 22.1675ZM31.6202 26.6206C31.0064 26.6206 30.507 26.1212 30.507 25.5073C30.507 24.8934 31.0063 24.394 31.6202 24.394C32.2341 24.394 32.7334 24.8933 32.7334 25.5073C32.7334 26.1212 32.2338 26.6206 31.6202 26.6206Z" fill="white"/>
<path d="M40.5253 22.1675C38.684 22.1675 37.1859 23.6657 37.1859 25.5073C37.1859 27.3488 38.684 28.847 40.5253 28.847C42.3667 28.847 43.8647 27.3488 43.8647 25.5073C43.8647 23.6657 42.3667 22.1675 40.5253 22.1675ZM40.5253 26.6206C39.9116 26.6206 39.4122 26.1212 39.4122 25.5073C39.4122 24.8934 39.9115 24.394 40.5253 24.394C41.1392 24.394 41.6385 24.8933 41.6385 25.5073C41.6385 26.1212 41.1391 26.6206 40.5253 26.6206Z" fill="white"/>
<path d="M49.4306 22.1675C47.5892 22.1675 46.0912 23.6657 46.0912 25.5073C46.0912 27.3488 47.5892 28.847 49.4306 28.847C51.2719 28.847 52.7701 27.3488 52.7701 25.5073C52.7701 23.6657 51.2719 22.1675 49.4306 22.1675ZM49.4306 26.6206C48.8168 26.6206 48.3174 26.1212 48.3174 25.5073C48.3174 24.8934 48.8167 24.394 49.4306 24.394C50.0443 24.394 50.5437 24.8933 50.5437 25.5073C50.5437 26.1212 50.0442 26.6206 49.4306 26.6206Z" fill="white"/>
<path d="M19.619 15.4746C19.4121 15.2675 19.1249 15.1482 18.8322 15.1482C18.5394 15.1482 18.2524 15.2674 18.0452 15.4746C17.8381 15.6816 17.719 15.9677 17.719 16.2615C17.719 16.5545 17.838 16.8416 18.0452 17.0486C18.2522 17.2557 18.5394 17.3748 18.8322 17.3748C19.1261 17.3748 19.4121 17.2558 19.619 17.0486C19.8272 16.8416 19.9453 16.5545 19.9453 16.2615C19.9453 15.9688 19.8272 15.6816 19.619 15.4746Z" fill="white"/>
</svg>
