<svg width="57" height="57" viewBox="0 0 57 57" fill="none" xmlns="http://www.w3.org/2000/svg">
<path d="M13.7887 7.97494H11.7629C12.0676 5.71906 13.315 5.60572 13.889 5.55351C14.4624 5.5013 14.9014 5.02057 14.9014 4.44477V1.11321C14.9014 0.807167 14.7754 0.514479 14.5529 0.304177C14.3305 0.0938736 14.031 -0.0151187 13.7256 0.00169218C10.2066 0.199637 6.01172 1.97647 6.01172 9.31736V15.111C6.01172 16.0781 6.79847 16.8649 7.76558 16.8649H13.7888C14.7559 16.8649 15.5426 16.078 15.5425 15.1109V9.72884C15.5425 8.76171 14.7558 7.97494 13.7887 7.97494ZM13.3161 14.6382H8.23828V9.31736C8.23828 4.19506 10.5162 2.76446 12.6748 2.36067V3.5312C11.184 3.98498 9.46823 5.32517 9.46823 9.08825C9.46823 9.70312 9.96665 10.2015 10.5815 10.2015H13.3161V14.6382Z" fill="white"/>
<path d="M25.1703 7.97494H23.1444C23.4492 5.71906 24.6965 5.60572 25.2705 5.55351C25.8439 5.5013 26.2829 5.02057 26.2829 4.44477V1.11321C26.2829 0.807167 26.1569 0.514479 25.9344 0.304177C25.712 0.0938736 25.4123 -0.0151187 25.1072 0.00169218C21.5881 0.199637 17.3932 1.97647 17.3932 9.31736V15.111C17.3932 16.0781 18.18 16.8649 19.1471 16.8649H25.1703C26.1374 16.8649 26.9243 16.078 26.9242 15.1108V9.72884C26.9242 8.76171 26.1374 7.97494 25.1703 7.97494ZM24.6976 14.6383H19.6198V9.31736C19.6198 4.19506 21.8977 2.76446 24.0563 2.36067V3.5312C22.5655 3.98498 20.8498 5.32517 20.8498 9.08825C20.8498 9.70312 21.3482 10.2015 21.963 10.2015H24.6976V14.6383Z" fill="white"/>
<path d="M31.7363 8.99439C31.5292 8.78732 31.242 8.6682 30.9492 8.6682C30.6564 8.6682 30.3692 8.78732 30.1621 8.99439C29.9551 9.20147 29.8359 9.4887 29.8359 9.7815C29.8359 10.0743 29.9551 10.3615 30.1621 10.5686C30.3692 10.7757 30.6564 10.8948 30.9492 10.8948C31.242 10.8948 31.5292 10.7757 31.7363 10.5686C31.9434 10.3615 32.0625 10.0743 32.0625 9.7815C32.0625 9.4887 31.9434 9.20147 31.7363 8.99439Z" fill="white"/>
<path d="M37.2133 8.66809H35.8105C35.1956 8.66809 34.6972 9.16651 34.6972 9.78139C34.6972 10.3963 35.1956 10.8947 35.8105 10.8947H37.2133C46.896 10.8947 54.7734 18.7723 54.7734 28.4551C54.7734 36.7194 48.9122 43.947 40.8366 45.6406C40.321 45.7489 39.9519 46.2035 39.9519 46.7302V53.199L33.0947 46.3417C32.886 46.1329 32.6028 46.0156 32.3075 46.0156H19.7867C10.104 46.0156 2.22656 38.138 2.22656 28.4551C2.22656 25.4709 2.98838 22.5241 4.42975 19.933C4.72877 19.3958 4.5354 18.7179 3.99813 18.4189C3.46075 18.1199 2.78287 18.3133 2.48406 18.8506C0.858896 21.7718 0 25.093 0 28.4551C0 39.3658 8.87619 48.2422 19.7867 48.2422H31.8464L40.278 56.6739C40.4909 56.8869 40.7756 57 41.0654 57C41.2088 57 41.3535 56.9723 41.4912 56.9152C41.9071 56.7429 42.1784 56.337 42.1784 55.8867V47.6125C46.2066 46.5687 49.8489 44.246 52.5105 41.0058C55.4056 37.4815 57 33.0243 57 28.4551C57 17.5446 48.1238 8.6682 37.2133 8.66809Z" fill="white"/>
<path d="M42.2005 19.7597H14.7996C14.1848 19.7597 13.6863 20.2581 13.6863 20.873C13.6863 21.4879 14.1848 21.9863 14.7996 21.9863H42.2004C42.8152 21.9863 43.3138 21.4879 43.3138 20.873C43.3138 20.2581 42.8154 19.7597 42.2005 19.7597Z" fill="white"/>
<path d="M42.2005 25.6973H14.7996C14.1848 25.6973 13.6863 26.1957 13.6863 26.8106C13.6863 27.4255 14.1848 27.9239 14.7996 27.9239H42.2004C42.8152 27.9239 43.3138 27.4255 43.3138 26.8106C43.3138 26.1957 42.8154 25.6973 42.2005 25.6973Z" fill="white"/>
<path d="M42.2005 31.6348H14.7996C14.1848 31.6348 13.6863 32.1334 13.6863 32.7482C13.6863 33.3629 14.1848 33.8615 14.7996 33.8615H42.2004C42.8152 33.8615 43.3138 33.3629 43.3138 32.7482C43.3138 32.1334 42.8154 31.6348 42.2005 31.6348Z" fill="white"/>
<path d="M42.2004 37.5725H27.595C26.9801 37.5725 26.4817 38.0711 26.4817 38.6858C26.4817 39.3006 26.9801 39.7991 27.595 39.7991H42.2004C42.8152 39.7991 43.3137 39.3006 43.3137 38.6858C43.3137 38.0711 42.8152 37.5725 42.2004 37.5725Z" fill="white"/>
<path d="M21.3312 37.5724H21.3133C20.6985 37.5724 20.2 38.071 20.2 38.6857C20.2 39.3005 20.6985 39.799 21.3133 39.799H21.3312C21.9461 39.799 22.4445 39.3005 22.4445 38.6857C22.4445 38.071 21.9461 37.5724 21.3312 37.5724Z" fill="white"/>
</svg>
