<svg width="57" height="57" viewBox="0 0 57 57" fill="none" xmlns="http://www.w3.org/2000/svg">
<path d="M43.7965 33.0567C43.5894 32.8495 43.3033 32.7305 43.0094 32.7305C42.7166 32.7305 42.4294 32.8495 42.2223 33.0567C42.0152 33.2639 41.8961 33.551 41.8961 33.8438C41.8961 34.1366 42.0152 34.4238 42.2223 34.6308C42.4294 34.8379 42.7166 34.9571 43.0094 34.9571C43.3022 34.9571 43.5894 34.838 43.7965 34.6308C44.0047 34.4238 44.1227 34.1366 44.1227 33.8438C44.1227 33.551 44.0047 33.2637 43.7965 33.0567Z" fill="white"/>
<path d="M55.8867 0H32.2852C31.6703 0 31.1719 0.498417 31.1719 1.11328V25.3773C29.8308 24.138 28.0397 23.379 26.0739 23.379H13.9485C9.80233 23.379 6.4292 26.7521 6.4292 30.8983V31.3278C5.88737 31.1077 5.29577 30.9853 4.67578 30.9853C2.09753 30.9853 0 33.0829 0 35.6611V35.7619C0 37.4157 0.895523 38.8634 2.22656 39.6481V44.747C2.22656 48.672 5.14392 51.9269 8.92373 52.4614L7.69121 55.4639C7.55027 55.8073 7.58968 56.1984 7.79642 56.5067C8.00305 56.815 8.34994 57 8.72111 57H13.6195C13.9765 57 14.3117 56.8289 14.5211 56.5399L17.4191 52.5399H22.6034L25.5014 56.5399C25.7108 56.8289 26.0461 57 26.4029 57H31.3013C31.6725 57 32.0193 56.815 32.226 56.5067C32.4328 56.1983 32.4722 55.8073 32.3312 55.4639L31.0987 52.4614C34.8785 51.9269 37.7959 48.672 37.7959 44.747V39.6481C39.1269 38.8635 40.0225 37.4157 40.0225 35.7619V35.6611C40.0225 33.0829 37.9249 30.9853 35.3467 30.9853C34.7267 30.9853 34.1351 31.1077 33.5933 31.3278V30.8983C33.5933 30.4601 33.5534 30.0313 33.4812 29.6133H54.7734V32.7305H47.2402C46.6253 32.7305 46.1269 33.2291 46.1269 33.8438C46.1269 34.4586 46.6253 34.9571 47.2402 34.9571H55.8867C56.5016 34.9571 57 34.4586 57 33.8438V1.11328C57 0.498417 56.5016 0 55.8867 0ZM8.65576 30.8983C8.65576 27.9798 11.0301 25.6055 13.9485 25.6055H26.074C28.9924 25.6055 31.3668 27.9798 31.3668 30.8983V33.2105C30.9261 33.9236 30.671 34.7629 30.671 35.6611V37.5445C29.9582 37.1043 29.1193 36.8496 28.2218 36.8496H11.8008C10.9033 36.8496 10.0644 37.1043 9.35156 37.5445V35.6611C9.35156 34.7631 9.09651 33.9236 8.65576 33.2105V30.8983ZM20.0112 42.876C20.6261 42.876 21.1245 42.3775 21.1245 41.7627V39.0762H28.2217C29.5722 39.0762 30.6709 40.1749 30.6709 41.5255V44.3018C30.6709 44.9156 30.1715 45.4151 29.5576 45.4151H10.4648C9.85098 45.4151 9.35156 44.9156 9.35156 44.3018V41.5255C9.35156 40.1749 10.4503 39.0762 11.8008 39.0762H18.8979V41.7627C18.8979 42.3775 19.3964 42.876 20.0112 42.876ZM13.0513 54.7735H10.3815L11.2984 52.54H14.6695L13.0513 54.7735ZM26.9711 54.7735L25.353 52.54H28.7241L29.641 54.7735H26.9711ZM35.3467 33.2118C36.6972 33.2118 37.7959 34.3105 37.7959 35.661V35.7618C37.7959 37.0202 36.7721 38.044 35.5137 38.044C34.8988 38.044 34.4004 38.5425 34.4004 39.1573C34.4004 39.772 34.8988 40.2706 35.5137 40.2706C35.5324 40.2706 35.5507 40.2694 35.5693 40.2691V44.7469C35.5693 47.8162 33.0722 50.3133 30.0029 50.3133H10.0195C6.95021 50.3133 4.45312 47.8162 4.45312 44.7469V40.2691C4.47172 40.2694 4.49009 40.2706 4.50879 40.2706C5.12365 40.2706 5.62207 39.772 5.62207 39.1573C5.62207 38.5425 5.12365 38.044 4.50879 38.044C3.25034 38.044 2.22656 37.0202 2.22656 35.7618V35.661C2.22656 34.3105 3.32526 33.2118 4.67578 33.2118C6.0263 33.2118 7.125 34.3105 7.125 35.661V44.3017C7.125 46.1433 8.62325 47.6415 10.4648 47.6415H29.5576C31.3992 47.6415 32.8975 46.1433 32.8975 44.3017V35.661C32.8975 34.3106 33.9962 33.2118 35.3467 33.2118ZM54.7734 27.3868H33.3984V21.437L47.4433 7.39209C47.878 6.95735 47.878 6.25242 47.4433 5.81757C47.0085 5.38273 46.3036 5.38284 45.8687 5.81757L33.3984 18.288V2.22657H54.7734V27.3868Z" fill="white"/>
<path d="M51.9981 9.78899C51.5634 9.35414 50.8585 9.35414 50.4237 9.78899L40.5712 19.6415C40.1365 20.0763 40.1365 20.7812 40.5712 21.2161C40.7886 21.4335 41.0735 21.5421 41.3584 21.5421C41.6433 21.5421 41.9283 21.4335 42.1456 21.2161L51.9981 11.3635C52.4329 10.9288 52.4329 10.2238 51.9981 9.78899Z" fill="white"/>
<path d="M39.5337 22.2534C39.3267 22.0464 39.0394 21.9272 38.7466 21.9272C38.4538 21.9272 38.1666 22.0464 37.9596 22.2534C37.7525 22.4605 37.6334 22.7466 37.6334 23.0405C37.6334 23.3333 37.7525 23.6205 37.9596 23.8276C38.1666 24.0347 38.4538 24.1538 38.7466 24.1538C39.0394 24.1538 39.3267 24.0347 39.5337 23.8276C39.7419 23.6205 39.8599 23.3333 39.8599 23.0405C39.8599 22.7477 39.7408 22.4605 39.5337 22.2534Z" fill="white"/>
</svg>
