<svg width="57" height="57" viewBox="0 0 57 57" fill="none" xmlns="http://www.w3.org/2000/svg">
<path d="M55.8872 27.4052C55.887 27.4052 55.8869 27.4052 55.8867 27.4052C55.272 27.4052 54.7737 27.9032 54.7733 28.5178C54.7698 35.5295 52.0369 42.1216 47.078 47.0797C42.1156 52.0413 35.5178 54.7739 28.4998 54.7739C21.4819 54.7739 14.8843 52.0412 9.92179 47.0796C4.95939 42.118 2.22644 35.5209 2.22644 28.5041C2.22644 21.4872 4.95928 14.8904 9.92179 9.9287C17.8854 1.96618 30.0188 -0.0416185 40.1142 4.9323C40.6653 5.20394 41.3331 4.97716 41.6049 4.42587C41.8766 3.87446 41.6498 3.20716 41.0983 2.93541C30.1472 -2.46011 16.9857 -0.282199 8.34749 8.35452C2.96455 13.7367 0 20.8925 0 28.5041C0 36.1156 2.96454 43.2716 8.34738 48.6538C13.7304 54.036 20.8874 57 28.5001 57C36.1127 57 43.2697 54.0359 48.6526 48.6538C54.0316 43.2756 56.9961 36.1248 57 28.5189C57.0002 27.9041 56.5022 27.4055 55.8872 27.4052Z" fill="white"/>
<path d="M44.9247 5.21106L44.8956 5.19069C44.3921 4.83811 43.6978 4.96058 43.3452 5.46433C42.9928 5.96787 43.1153 6.66189 43.6191 7.01447L43.645 7.03284C43.8398 7.16955 44.0629 7.23523 44.2839 7.23523C44.6343 7.23523 44.9791 7.07024 45.1959 6.76186C45.5493 6.25866 45.428 5.56453 44.9247 5.21106Z" fill="white"/>
<path d="M50.3007 27.3829C49.686 27.3829 49.1874 27.8812 49.1874 28.4961L49.1873 28.5642C49.1845 29.1789 49.6807 29.6795 50.2956 29.6822C50.2974 29.6822 50.299 29.6823 50.3007 29.6823C50.9132 29.6823 51.4113 29.1872 51.414 28.574L51.4141 28.496C51.4141 27.8812 50.9156 27.3829 50.3007 27.3829Z" fill="white"/>
<path d="M50.062 31.9228C49.4606 31.7958 48.8701 32.1812 48.7434 32.7828C46.7409 42.2956 38.2191 49.2001 28.4806 49.2001C17.0626 49.2001 7.77351 39.9124 7.77351 28.4961C7.77351 21.1026 11.6699 14.3861 17.9027 10.6906C17.8304 11.1579 18.0633 11.6379 18.5098 11.8585C18.6685 11.9368 18.8367 11.974 19.0022 11.974C19.4123 11.974 19.8069 11.7464 20.0011 11.3538L21.2344 8.85851C21.5068 8.30743 21.2808 7.63991 20.7297 7.36749L18.2339 6.13431C17.6825 5.86189 17.0151 6.08799 16.7425 6.63907C16.4701 7.19014 16.6961 7.85767 17.2473 8.13008L17.6 8.30431C10.2116 12.2786 5.54696 19.9822 5.54696 28.4959C5.54696 41.1396 15.8348 51.4261 28.4806 51.4261C33.7733 51.4261 38.9374 49.5803 43.0214 46.2288C47.0493 42.9232 49.8551 38.3108 50.9223 33.2411C51.0488 32.6397 50.6637 32.0494 50.062 31.9228Z" fill="white"/>
<path d="M28.4999 24.9422C26.9244 24.9422 25.5853 25.9706 25.1165 27.3911H15.9198C15.3051 27.3911 14.8065 27.8894 14.8065 28.5042C14.8065 29.1189 15.305 29.6174 15.9198 29.6174H25.1165C25.4696 30.6874 26.3165 31.5341 27.3866 31.8872V44.0402C27.3866 44.6548 27.8851 45.1534 28.4998 45.1534C29.1146 45.1534 29.6132 44.6549 29.6132 44.0402V31.8871C31.0338 31.4185 32.0624 30.0794 32.0624 28.5041C32.0624 26.5401 30.4643 24.9422 28.4999 24.9422ZM28.4999 29.84C27.7633 29.84 27.164 29.2408 27.164 28.5042C27.164 27.7677 27.7633 27.1685 28.4999 27.1685C29.2366 27.1685 29.8359 27.7677 29.8359 28.5042C29.8359 29.2408 29.2366 29.84 28.4999 29.84Z" fill="white"/>
<path d="M33.622 20.803H31.4522C32.9993 19.2502 34.7353 17.0045 34.7353 14.745C34.7353 12.5418 33.2548 11.0615 31.0513 11.0615C29.0199 11.0615 27.3672 12.7139 27.3672 14.745C27.3672 15.3597 27.8657 15.8581 28.4806 15.8581C29.0953 15.8581 29.5939 15.3598 29.5939 14.745C29.5939 13.9414 30.2477 13.2877 31.0514 13.2877C32.5089 13.2877 32.5089 14.3846 32.5089 14.745C32.5088 17.0567 29.1245 20.0582 27.8211 21.0193C27.4336 21.3043 27.2728 21.806 27.4228 22.2631C27.5729 22.7201 27.9996 23.0292 28.4807 23.0292H33.6222C34.237 23.0292 34.7356 22.5309 34.7356 21.9161C34.7353 21.3013 34.2367 20.803 33.622 20.803Z" fill="white"/>
<path d="M45.1832 15.9363H45.0102V12.1744C45.0102 11.5597 44.5117 11.0612 43.8969 11.0612C43.282 11.0612 42.7835 11.5595 42.7835 12.1744V15.9363H39.7826V12.1744C39.7826 11.5597 39.2841 11.0612 38.6693 11.0612C38.0545 11.0612 37.5559 11.5595 37.5559 12.1744V17.0495C37.5559 17.6642 38.0544 18.1626 38.6693 18.1626H42.7835V21.9353C42.7835 22.5501 43.282 23.0485 43.8969 23.0485C44.5117 23.0485 45.0102 22.5502 45.0102 21.9353V18.1626H45.1832C45.798 18.1626 46.2966 17.6643 46.2966 17.0495C46.2966 16.4346 45.798 15.9363 45.1832 15.9363Z" fill="white"/>
<path d="M53.0379 15.9645C52.5766 15.9645 52.136 16.0543 51.7317 16.2158V12.1744C51.7317 11.5597 51.2332 11.0612 50.6184 11.0612C50.0036 11.0612 49.5051 11.5595 49.5051 12.1744V21.916C49.5051 22.5307 50.0036 23.0291 50.6184 23.0291C51.2332 23.0291 51.7317 22.5308 51.7317 21.916V19.4967C51.7317 18.7765 52.3177 18.1907 53.0379 18.1907C53.7583 18.1907 54.3442 18.7766 54.3442 19.4967V21.916C54.3442 22.5307 54.8427 23.0291 55.4575 23.0291C56.0724 23.0291 56.5709 22.5308 56.5709 21.916V19.4967C56.5708 17.549 54.9859 15.9645 53.0379 15.9645Z" fill="white"/>
</svg>
