<svg width="57" height="57" viewBox="0 0 57 57" fill="none" xmlns="http://www.w3.org/2000/svg">
<path d="M40.5064 38.9316C40.0724 38.4969 39.3664 38.4973 38.9309 38.9307C38.9285 38.9332 38.9185 38.9432 38.9159 38.9458C38.4854 39.3826 38.4947 40.0795 38.9301 40.5116C39.1458 40.7258 39.4285 40.832 39.7118 40.832C40 40.832 40.2887 40.7219 40.5075 40.5031C40.9418 40.0687 40.9404 39.3666 40.5064 38.9316Z" fill="white"/>
<path d="M45.3316 26.2502C44.8369 22.5289 43.1687 19.1553 40.5074 16.4941C37.3004 13.2875 33.0366 11.5217 28.5016 11.5217C23.9664 11.5217 19.7026 13.2875 16.4957 16.4941C13.2887 19.7005 11.5226 23.9638 11.5226 28.4985C11.5226 33.0332 13.2887 37.2965 16.4956 40.5031C19.7712 43.7784 24.1198 45.4816 28.5119 45.4816C31.4672 45.4816 34.4422 44.7104 37.1232 43.1283C37.6528 42.8157 37.8287 42.1333 37.5163 41.6039C37.2037 41.0744 36.5211 40.8985 35.9916 41.2109C30.201 44.6281 22.8314 43.6896 18.0703 38.9288C15.2839 36.1428 13.7494 32.4386 13.7494 28.4987C13.7494 24.5588 15.2839 20.8545 18.0703 18.0686C20.8566 15.2825 24.5611 13.7482 28.5016 13.7482C32.442 13.7482 36.1466 15.2824 38.9328 18.0686C43.5666 22.7018 44.5835 29.9336 41.4058 35.6552C41.1073 36.1927 41.3011 36.8704 41.8387 37.1688C42.3763 37.4676 43.054 37.2736 43.3525 36.736C45.1076 33.5759 45.8105 29.852 45.3316 26.2502Z" fill="white"/>
<path d="M1.9009 21.4296C1.69381 21.2214 1.40655 21.1033 1.11373 21.1033C0.819792 21.1033 0.53365 21.2214 0.326559 21.4296C0.118354 21.6356 0.000334018 21.9228 0.000334018 22.2166C0.000334018 22.5095 0.118354 22.7955 0.326559 23.0037C0.53365 23.2109 0.819792 23.3299 1.11373 23.3299C1.40655 23.3299 1.69269 23.2109 1.9009 23.0037C2.10799 22.7955 2.22712 22.5095 2.22712 22.2166C2.22712 21.9226 2.10799 21.6354 1.9009 21.4296Z" fill="white"/>
<path d="M1.11339 0C0.498467 0 0 0.498526 0 1.11328V17.474C0 18.0888 0.498467 18.5873 1.11339 18.5873C1.72832 18.5873 2.22679 18.0888 2.22679 17.474V2.30571C5.99852 2.84755 8.90682 6.1001 8.90682 10.0191V27.0185L5.71572 29.8626C5.47835 30.0741 5.34273 30.377 5.34318 30.695L5.34407 31.4433V53.2118C5.34407 54.0716 4.64452 54.7709 3.78487 54.7709C2.92567 54.7709 2.22679 54.0721 2.22679 53.2131V26.613C2.22679 25.9983 1.72832 25.4998 1.11339 25.4998C0.498467 25.4998 0 25.9983 0 26.613V53.2127C0 55.2994 1.69782 56.997 3.78476 56.997C5.87226 56.997 7.57064 55.2988 7.57064 53.2115L7.57041 31.1919L10.7608 28.3483C10.9979 28.1371 11.1334 27.8348 11.1334 27.5173V10.0191C11.1334 4.49453 6.63839 0 1.11339 0Z" fill="white"/>
<path d="M40.425 9.49404C36.8577 7.25179 32.7345 6.0667 28.5013 6.0667C22.5597 6.0667 16.9599 8.36618 12.7338 12.5415C12.2964 12.9737 12.2922 13.6784 12.7244 14.1158C12.9424 14.3364 13.2295 14.4467 13.5166 14.4467C13.7993 14.4467 14.0822 14.3397 14.2991 14.1253C18.1056 10.3644 23.1496 8.29315 28.5016 8.29315C32.3148 8.29315 36.0282 9.36034 39.2401 11.379C39.7606 11.7065 40.4481 11.5495 40.7752 11.029C41.1024 10.5084 40.9456 9.82113 40.425 9.49404Z" fill="white"/>
<path d="M32.2057 17.8784C29.3902 17.8013 26.7747 19.1517 25.2128 21.4972C24.6489 22.3438 23.7892 22.9649 22.7921 23.2458C19.8657 24.0702 17.6756 26.4335 17.0765 29.4132C16.6446 31.5608 17.0751 33.7367 18.2887 35.54C19.4729 37.2998 21.2689 38.4862 23.3457 38.8807C24.1818 39.0396 25.0182 39.1181 25.849 39.1181C29.0006 39.1181 32.0655 37.988 34.676 35.8269C37.9125 33.1474 40.0869 29.1541 40.0865 25.8898C40.0863 21.5949 36.551 18.0009 32.2057 17.8784ZM33.2561 34.112C31.2906 35.739 28.0474 37.5075 23.7614 36.6935C22.2733 36.4108 20.9858 35.5596 20.1362 34.2971C19.257 32.991 18.9459 31.4123 19.2595 29.8521C19.6932 27.6957 21.2781 25.9855 23.396 25.3888C24.9044 24.9639 26.2079 24.02 27.0662 22.731C28.1685 21.0758 29.9928 20.1015 31.9723 20.1015C32.029 20.1015 32.086 20.1023 32.1428 20.1038C35.295 20.1928 37.8596 22.7884 37.86 25.89C37.8602 28.4867 35.967 31.8677 33.2561 34.112Z" fill="white"/>
<path d="M33.8188 24.0493C33.2039 24.0493 32.7054 24.5478 32.7054 25.1626V28.1282C32.7054 28.743 33.2039 29.2415 33.8188 29.2415C34.4337 29.2415 34.9322 28.743 34.9322 28.1282V25.1626C34.9322 24.5478 34.4337 24.0493 33.8188 24.0493Z" fill="white"/>
<path d="M24.1466 27.8306C23.5317 27.8306 23.0332 28.3292 23.0332 28.9439V33.9422C23.0332 34.557 23.5317 35.0555 24.1466 35.0555C24.7616 35.0555 25.26 34.557 25.26 33.9422V28.9439C25.26 28.3292 24.7616 27.8306 24.1466 27.8306Z" fill="white"/>
<path d="M29.2734 23.6646C28.6584 23.6646 28.16 24.1632 28.16 24.7779V31.0632C28.16 31.6779 28.6584 32.1764 29.2734 32.1764C29.8883 32.1764 30.3868 31.6779 30.3868 31.0632V24.7779C30.3868 24.1631 29.8883 23.6646 29.2734 23.6646Z" fill="white"/>
<path d="M55.8873 0C55.2723 0 54.7739 0.498526 54.7739 1.11328V13.1345H52.9952V1.12742C52.9952 0.512665 52.4968 0.0141386 51.8818 0.0141386C51.2669 0.0141386 50.7684 0.512665 50.7684 1.12742V13.1345H48.9881V1.12742C48.9881 0.512665 48.4897 0.0141386 47.8747 0.0141386C47.2598 0.0141386 46.7613 0.512665 46.7613 1.12742V13.1345H44.981V1.11328C44.981 0.498526 44.4826 0 43.8676 0C43.2527 0 42.7542 0.498526 42.7542 1.11328V15.0518C42.7542 16.8272 43.4862 18.5537 44.7622 19.7884C45.6073 20.6061 46.0919 21.7492 46.0919 22.9251V39.5539C45.7144 39.5281 45.3332 39.6941 45.1013 40.0272C44.4193 41.0064 43.6418 41.9344 42.7903 42.7859C38.9736 46.6023 33.8989 48.7041 28.501 48.7041C23.1032 48.7041 18.0285 46.6023 14.2116 42.7859C13.5022 42.0767 12.8422 41.3119 12.2495 40.5125C11.8833 40.0185 11.1859 39.9151 10.6921 40.2811C10.1981 40.6473 10.0946 41.3445 10.4608 41.8383C11.1185 42.7254 11.8506 43.5739 12.6371 44.3602C16.8745 48.5971 22.5085 50.9305 28.501 50.9305C34.4935 50.9305 40.1274 48.5971 44.3648 44.3602C44.9772 43.7477 45.5546 43.0989 46.0917 42.4223V53.2151C46.0917 55.3021 47.7898 57 49.8771 57C51.9643 57 53.6624 55.3021 53.6624 53.2151V22.925C53.6624 21.7492 54.147 20.6059 54.992 19.7883C56.2681 18.5537 57 16.8271 57 15.0516V1.11328C57.0007 0.498526 56.5022 0 55.8873 0ZM53.4444 18.1883C52.1682 19.4229 51.4363 21.1495 51.4363 22.925V53.2151C51.4363 54.0745 50.737 54.7736 49.8776 54.7736C49.0181 54.7736 48.319 54.0744 48.319 53.2151V22.925C48.319 21.1495 47.587 19.4232 46.3111 18.1883C45.5403 17.4426 45.0708 16.426 44.9939 15.361H54.7616C54.6846 16.426 54.215 17.4425 53.4444 18.1883Z" fill="white"/>
</svg>
