<svg width="10" height="12" viewBox="0 0 10 12" fill="none" xmlns="http://www.w3.org/2000/svg">
<path fill-rule="evenodd" clip-rule="evenodd" d="M8 1.44019H9.02434C9.56299 1.44081 9.99949 1.87266 10 2.4057V11.0345C9.99949 11.5675 9.56299 11.9994 9.02434 12H0.975659C0.437014 11.9994 0.000635193 11.5675 0 11.0345V2.4057C0.000635193 1.87266 0.437014 1.44081 0.975659 1.44019H2V2.67815C2 2.85592 2.14559 2.99999 2.32522 2.99999H7.67478C7.85441 2.99999 8 2.85592 8 2.67815V1.44019ZM8 5H2V6H8V5ZM2 7H8V8H2V7ZM8 9H2V10H8V9Z" fill="white"/>
<path d="M7 1.64717C7.00023 1.4564 6.86176 1.28402 6.6486 1.2095L6.23559 1.06472C5.87595 0.938903 5.64259 0.648237 5.64304 0.326534C5.64271 0.146262 5.46543 0.000185848 5.24651 0H4.7536C4.53469 0.000185848 4.35729 0.146262 4.35707 0.326534C4.35752 0.648237 4.12404 0.938903 3.76452 1.06472L3.3514 1.2095C3.13812 1.28402 2.99977 1.4564 3 1.64717V2H7V1.64717Z" fill="white"/>
</svg>
