<!-- width="19" height="19" viewBox="0 0 19 19" -->
<svg fill="none" xmlns="http://www.w3.org/2000/svg">
	<symbol id="turning">
		<path fill-rule="evenodd" clip-rule="evenodd" d="M8.42397 0.0646271C8.76985 0.0252519 9.1288 0 9.5 0C9.87215 0 10.2309 0.0259429 10.5743 0.0644329C10.9545 0.107048 11.2771 0.362844 11.4052 0.723329L12.1063 2.6962C12.2282 2.74288 12.3488 2.79286 12.4679 2.84609L14.3559 1.94709C14.7016 1.78251 15.1108 1.8297 15.4099 2.06863C15.9719 2.51752 16.4819 3.02792 16.9303 3.59027C17.1686 3.88913 17.2157 4.29768 17.0517 4.64292L16.1539 6.53226C16.2068 6.65086 16.2568 6.77116 16.3036 6.89314L18.2774 7.59514C18.6378 7.72331 18.8935 8.04582 18.9361 8.42594C18.9748 8.77062 19 9.12913 19 9.50028C19 9.87133 18.9748 10.2295 18.9368 10.5725C18.8948 10.9533 18.6389 11.2765 18.278 11.4049L16.3043 12.1068C16.2574 12.229 16.2073 12.3498 16.154 12.4688L17.0515 14.3563C17.2158 14.7018 17.1686 15.1107 16.9299 15.4097C16.482 15.9706 15.9728 16.4812 15.409 16.9305C15.1101 17.1686 14.7017 17.2156 14.3566 17.0516L12.4673 16.1538C12.3487 16.2067 12.2284 16.2566 12.1065 16.3035L11.4039 18.2776C11.2757 18.6379 10.9533 18.8935 10.5732 18.9361C10.2286 18.9747 9.87064 19 9.49944 19C9.12788 19 8.76976 18.9748 8.42666 18.9368C8.04602 18.8948 7.72284 18.639 7.59442 18.2782L6.8919 16.3045C6.76991 16.2576 6.64946 16.2076 6.53064 16.1544L4.64417 17.0529C4.29892 17.2173 3.89013 17.1704 3.59104 16.9322C3.02841 16.4839 2.51759 15.9744 2.06832 15.4105C1.83011 15.1115 1.78322 14.7029 1.94749 14.3577L2.84622 12.4691C2.79313 12.3502 2.74316 12.2297 2.69639 12.1077L0.722925 11.4053C0.363225 11.2773 0.107806 10.9557 0.0646243 10.5763C0.0252553 10.2305 0 9.87152 0 9.50083C0 9.12934 0.0259255 8.76944 0.0644519 8.4263C0.107097 8.04648 0.362512 7.72419 0.722543 7.59589L2.6963 6.89257C2.74306 6.77053 2.79303 6.65001 2.84613 6.53109L1.9471 4.64378C1.78253 4.29832 1.82954 3.88923 2.06818 3.59009C2.51699 3.02752 3.02688 2.51689 3.59049 2.06784C3.88952 1.8296 4.29823 1.78271 4.64345 1.94705L6.53234 2.84625C6.65113 2.79318 6.77155 2.74323 6.89356 2.69647L7.59482 0.723329C7.72272 0.363432 8.04447 0.107829 8.42397 0.0646271ZM9.26206 2.00444L8.61675 3.82016C8.51043 4.11931 8.26838 4.3502 7.96455 4.44229C7.63135 4.54327 7.31306 4.67587 7.01006 4.83809C6.72991 4.98808 6.39515 4.996 6.10823 4.85941L4.37304 4.03338C4.25634 4.14296 4.1431 4.25624 4.03347 4.37308L4.8592 6.10652C4.9959 6.39348 4.98803 6.72833 4.83801 7.00856C4.67593 7.3113 4.54322 7.63025 4.4421 7.96345C4.35002 8.26685 4.11952 8.5086 3.82086 8.61503L2.00456 9.26225C2.00157 9.34211 2 9.42162 2 9.50083C2 9.5799 2.00152 9.65911 2.00444 9.73854L3.82048 10.3848C4.11932 10.4912 4.34998 10.733 4.4421 11.0365C4.54322 11.3697 4.67593 11.6887 4.83801 11.9914C4.98797 12.2715 4.9959 12.6062 4.85937 12.8931L4.03386 14.6278C4.14331 14.7443 4.25647 14.8573 4.37318 14.9667L6.10641 14.1412C6.39336 14.0046 6.7282 14.0124 7.0084 14.1625C7.31185 14.3249 7.63124 14.4583 7.96448 14.5599C8.26744 14.6522 8.50872 14.8827 8.61493 15.1811L9.26079 16.9956C9.34052 16.9985 9.42003 17 9.49944 17C9.5786 17 9.65785 16.9985 9.7373 16.9956L10.3834 15.18C10.4896 14.8816 10.7309 14.6511 11.0339 14.5588C11.3671 14.4571 11.6873 14.3236 11.992 14.1613C12.2716 14.0125 12.6051 14.0049 12.8912 14.1409L14.626 14.9652C14.7425 14.8558 14.8556 14.7426 14.9651 14.6259L14.1405 12.8918C14.0038 12.6043 14.0121 12.269 14.1629 11.9886C14.3242 11.6887 14.4575 11.369 14.5593 11.0346C14.6516 10.7314 14.8822 10.4899 15.1808 10.3837L16.9956 9.73823C16.9985 9.6587 17 9.57942 17 9.50028C17 9.42099 16.9985 9.34159 16.9956 9.26196L15.1803 8.61634C14.8816 8.51013 14.651 8.26863 14.5587 7.96542C14.4572 7.63211 14.3238 7.31261 14.1614 7.00755C14.0126 6.72801 14.005 6.39452 14.1409 6.1085L14.9654 4.3735C14.8558 4.2567 14.7426 4.14338 14.6259 4.03369L12.8919 4.85937C12.6046 4.99616 12.2693 4.98807 11.989 4.83758C11.6853 4.67457 11.3661 4.54223 11.0362 4.44252C10.732 4.35059 10.4897 4.11957 10.3832 3.82016L9.73797 2.00453C9.65838 2.00156 9.5791 2 9.5 2C9.42081 2 9.34153 2.00152 9.26206 2.00444Z" fill="currentColor"/>
		<path fill-rule="evenodd" clip-rule="evenodd" d="M9.5 11C10.3284 11 11 10.3284 11 9.5C11 8.67157 10.3284 8 9.5 8C8.67157 8 8 8.67157 8 9.5C8 10.3284 8.67157 11 9.5 11ZM9.5 13C11.433 13 13 11.433 13 9.5C13 7.567 11.433 6 9.5 6C7.567 6 6 7.567 6 9.5C6 11.433 7.567 13 9.5 13Z" fill="currentColor"/>
	</symbol>

<!-- width="19" height="18" viewBox="0 0 19 18" -->
	<symbol id="logout">
		<path fill-rule="evenodd" clip-rule="evenodd" d="M0 2C0 0.9 0.9 0 2 0H10V2H2V16H10V18H2C0.9 18 0 17.1 0 16V2ZM14.176 8L11.64 5.464L13.054 4.05L18.004 9L13.054 13.95L11.64 12.536L14.176 10H7.59V8H14.176Z" fill="currentColor"/>
	</symbol>

	<!-- width="14" height="8" viewBox="0 0 14 8" -->
	<symbol id="caret">
		<path d="M12.999 1L6.99902 7L0.999023 0.999999" stroke="currentColor" stroke-width="1.7" stroke-linejoin="round"/>
	</symbol>

	<!-- width="11" height="18" viewBox="0 0 11 18" -->
	<symbol fill="none" id="caret-big">
		<path d="M11 16.2L9.16667 18L-1.12054e-06 9L9.16667 1.74707e-06L11 1.8L3.72396 9L11 16.2Z" fill="currentColor"/>
	</symbol>

	<!-- width="16" height="17" viewBox="0 0 16 17" -->
	<symbol id="comments">
		<path d="M11 10.875H1V1.875H15V14.1296L11.669 11.1317L11.3837 10.875H11Z" stroke="currentColor" stroke-width="2"/>
	</symbol>

	<!-- width="13" height="13" viewBox="0 0 13 13" -->
	<symbol id="close">
		<path d="M1 1L12 12M12 1L1 12" stroke="currentColor" stroke-width="1.7"/>
	</symbol>

		<!-- width="16" height="16" viewBox="0 0 16 16" -->
	<symbol id="close-big" fill="none">
		<path d="M1 0.999512L15 14.9995M15 0.999512L1 14.9995" stroke="currentColor" stroke-width="2"/>
	</symbol>

	<!-- width="12" height="10" viewBox="0 0 12 10" -->
	<symbol fill="none" id="check">
		<path d="M1 4.42451L5.13423 8L11 1" stroke="currentColor" stroke-width="1.7"/>
	</symbol>

	<!-- width="18" height="14" viewBox="0 0 18 14" -->
	<symbol fill="none" id="check-big">
		<path d="M1 6.38089L7.61477 11.9995L17 0.999512" stroke="currentColor" stroke-width="2"/>
	</symbol>

	<!-- width="15" height="15" viewBox="0 0 15 15" -->
	<symbol id="edit" fill="none">
		<path fill-rule="evenodd" clip-rule="evenodd" d="M15 1.24948L7.37363 8.87584L6.12416 7.62637L13.7505 0L15 1.24948ZM0 1.29342H7.85329V3.06045H1.76703V13.233H11.9395V7.14671H13.7066V15H0V1.29342Z" fill="currentColor"/>
	</symbol>

	<!-- width="17" height="16" viewBox="0 0 17 16" -->
	<symbol id="star" fill="none">
		<path d="M8.5 12.8589L13.753 16L12.359 10.08L17 6.09684L10.8885 5.58316L8.5 0L6.1115 5.58316L0 6.09684L4.641 10.08L3.247 16L8.5 12.8589Z" fill="currentColor"/>
	</symbol>

	<!-- width="12" height="13" viewBox="0 0 12 13" -->
	<symbol id="user" fill="none">
		<circle cx="6" cy="3" r="2.2" stroke="currentColor" stroke-width="1.6"/>
		<path d="M11 13C11 9.13401 8.76142 8 6 8C3.23858 8 1 9.13401 1 13" stroke="currentColor" stroke-width="1.6"/>
	</symbol>

	<!-- width="10" height="11" viewBox="0 0 10 11" -->
	<symbol id="visit" fill="none">
		<path d="M9 0V11M1 2L4.5 5.5L1 9" stroke="currentColor" stroke-width="1.7"/>
	</symbol>	

	<!-- width="16" height="15" viewBox="0 0 16 15" -->
	<symbol id="save" fill="none">
		<path fill-rule="evenodd" clip-rule="evenodd" d="M0 1.29297H5.85329V3.06H1.76703V13.2325H11.9395V9.14626H13.7066V14.9995H0V1.29297Z" fill="currentColor"/>
		<path fill-rule="evenodd" clip-rule="evenodd" d="M15.0657 2.06594L8.00001 9.13163L4.93433 6.06594L6.0657 4.93457L8.00001 6.86889L13.9343 0.93457L15.0657 2.06594Z" fill="currentColor"/>
	</symbol>

	<!-- width="18" height="20" viewBox="0 0 18 20" -->
	<symbol id="import" fill="none">
		<path d="M10 6L8 6L8 15L5 15L9 20L13 15L10 15L10 6Z" fill="currentColor"/>
		<path d="M16 -1.74846e-07L2 -1.39876e-06C0.897002 -1.49519e-06 1.67004e-06 0.896998 1.57361e-06 2L7.86805e-07 11C6.90378e-07 12.103 0.897001 13 2 13L6 13L6 11L2 11L2 2L16 2L16 11L12 11L12 13L16 13C17.103 13 18 12.103 18 11L18 2C18 0.897 17.103 -7.84182e-08 16 -1.74846e-07Z" fill="currentColor"/>
	</symbol>

	<!-- width="12" height="12" viewBox="0 0 12 12" -->
	<symbol id="plus-btn" fill="none">
		<path d="M0 5H12V7H0V5Z" fill="currentColor"/>
		<path d="M5 12L5 8.74243e-08L7 0L7 12H5Z" fill="currentColor"/>
	</symbol>

	<!-- width="16" height="18" viewBox="0 0 16 18" -->
	<symbol id="pdf" fill="none">
		<path fill-rule="evenodd" clip-rule="evenodd" d="M11.3333 0H1.33333C0.979711 0 0.640573 0.135459 0.390524 0.376577C0.140476 0.617695 0 0.944722 0 1.28571L0 16.7143C0 17.0553 0.140476 17.3823 0.390524 17.6234C0.640573 17.8645 0.979711 18 1.33333 18H14.6667C15.0203 18 15.3594 17.8645 15.6095 17.6234C15.8595 17.3823 16 17.0553 16 16.7143V4.5L11.3333 0ZM1.33333 1.28571H6.66667C6.50695 1.33306 6.36391 1.42205 6.25333 1.54286C6.10129 1.717 5.99598 1.92452 5.94667 2.14714C5.79209 2.76549 5.75147 3.40523 5.82667 4.03714C5.90667 4.82014 6.05733 5.59414 6.28 6.35143C5.86552 7.52169 5.3711 8.66419 4.8 9.77143C4.13333 11.0571 3.73333 11.9057 3.58667 12.1371C3.2732 12.2501 2.96611 12.3788 2.66667 12.5229C2.184 12.735 1.73467 13.0114 1.33333 13.3457V1.28571ZM7.22667 7.45714C7.54154 8.45007 8.07349 9.36637 8.78667 10.1443C9.15333 10.449 9.58 10.6804 10.04 10.8257C9.18667 10.9414 8.4 11.0829 7.62667 11.25C6.80267 11.4429 5.996 11.6961 5.21333 12.0086C4.43067 12.321 5.50667 11.4429 6.02667 10.4014C6.51333 9.45 6.92 8.46 7.24 7.44429L7.22667 7.45714ZM14.6667 16.7143H2C1.92469 16.7226 1.84864 16.7226 1.77333 16.7143C2.13415 16.5912 2.46529 16.3987 2.74667 16.1486C3.68934 15.2465 4.48904 14.2154 5.12 13.0886C5.53333 12.9214 5.89333 12.7929 6.2 12.69L6.76 12.51C7.36 12.3429 8.01333 12.2143 8.68 12.0857C9.34667 11.9571 10.0133 11.88 10.6533 11.8286C11.2493 12.1063 11.8693 12.3351 12.5067 12.51C13.044 12.6514 13.592 12.7517 14.1467 12.8057H14.6533V16.7143H14.6667ZM14.6667 10.4657C14.3945 10.3203 14.1088 10.1998 13.8133 10.1057C13.4851 10.0297 13.1504 9.98241 12.8133 9.96429C12.2653 9.96814 11.7173 10.0029 11.1733 10.0671C10.6765 9.88125 10.2232 9.60148 9.84 9.24428C9.04376 8.38081 8.45628 7.35761 8.12 6.24857C8.268 5.39871 8.35733 4.53857 8.38667 3.67714C8.41333 3.35571 8.41333 3.03429 8.38667 2.71286C8.43224 2.51701 8.43195 2.31383 8.38582 2.11811C8.33969 1.92238 8.24888 1.73904 8.12 1.58143C8.0126 1.48113 7.88501 1.40314 7.74512 1.35228C7.60523 1.30142 7.456 1.27876 7.30667 1.28571H10.6667L14.6667 5.14286V10.4657Z" fill="currentColor"/>
	</symbol>	

	<!-- width="16" height="15" viewBox="0 0 16 15" -->
	<symbol id="entry-ok" fill="none">
		<path fill-rule="evenodd" clip-rule="evenodd" d="M0 0.358398H5.85329V2.12543H1.76703V12.2979H11.9395V8.21169H13.7066V14.065H0V0.358398Z" fill="currentColor"/>
		<path fill-rule="evenodd" clip-rule="evenodd" d="M15.0657 1.13137L8.00001 8.19706L4.93433 5.13137L6.0657 4L8.00001 5.93431L13.9343 0L15.0657 1.13137Z" fill="currentColor"/>
	</symbol>	

	<!-- width="8" height="12" viewBox="0 0 8 12" -->
	<symbol id="caret-owl" fill="none">
		<path d="M6.5 1L1.5 6L6.5 11" stroke="currentColor" stroke-width="1.7"/>
	</symbol>

	<!-- width="16" height="16" viewBox="0 0 16 16" -->
	<symbol id="plus-16" fill="none">
		<path d="M0 7H16V9H0V7Z" fill="currentColor"/>
		<path d="M7 16L7 8.74206e-08L9 0L9 16H7Z" fill="currentColor"/>
	</symbol>

	<!-- width="18" height="20" viewBox="0 0 18 20" -->
	<symbol id="upload" fill="none">
		<path d="M8 14H10V5H13L9 0L5 5H8V14Z" fill="currentColor"/>
		<path d="M2 20H16C17.103 20 18 19.103 18 18V9C18 7.897 17.103 7 16 7H12V9H16V18H2V9H6V7H2C0.897 7 0 7.897 0 9V18C0 19.103 0.897 20 2 20Z" fill="currentColor"/>
	</symbol>

	<!-- width="17" height="17" viewBox="0 0 17 17" -->
	<symbol id="to-site" fill="none">
		<path d="M16 10V15C16 15.5523 15.5523 16 15 16H2C1.44772 16 1 15.5523 1 15V2C1 1.44772 1.44772 1 2 1H7" stroke="currentColor" stroke-width="2"/>
		<path d="M10 1H16M16 1V7M16 1L6 11" stroke="currentColor" stroke-width="2"/>
	</symbol>	

	<!-- width="14" height="13" viewBox="0 0 14 13" -->
	<symbol id="status-table" fill="none">
		<path fill-rule="evenodd" clip-rule="evenodd" d="M0 0.292969L11.9395 0.293196V2.06023L1.76703 2.06V11H11.9395V0.293196H13.7066V12.767H0V0.292969Z" fill="currentColor"/>
		<path d="M3.5 4H6V5.5H3.5V4Z" fill="currentColor"/>
		<path d="M7.5 4H10V5.5H7.5V4Z" fill="currentColor"/>
		<path d="M3.5 7H6V8.5H3.5V7Z" fill="currentColor"/>
		<path d="M7.5 7H10V8.5H7.5V7Z" fill="currentColor"/>
	</symbol>	

	<!--width="15" height="16" viewBox="0 0 15 16" -->
	<symbol id="user-1" fill="none">
		<path d="M1 14.5C1 10.9101 3.91015 8 7.5 8V8C11.0899 8 14 10.9101 14 14.5V15H1V14.5Z" stroke="currentColor" stroke-width="2"/>
		<circle cx="7.5" cy="4.5" r="3.5" stroke="currentColor" stroke-width="2"/>
	</symbol>	

	<!--width="16" height="15" viewBox="0 0 16 15" -->
	<symbol id="direct" fill="none">
		<path d="M8 15V7M8 7L1 1M8 7L15 1M1 1H6M1 1V6M15 1V6M15 1H10" stroke="currentColor" stroke-width="2"/>
	</symbol>	

	<!--width="60" height="27" viewBox="0 0 60 27" -->
	<symbol id="infinity" fill="none">
		<path d="M46.5 5.71183e-05C42.9 5.71183e-05 39.5 1.40006 37.075 3.82506L19.5 19.4251C17.9 21.0251 15.775 21.9001 13.5 21.9001C8.825 21.9001 5.025 18.1251 5.025 13.4501C5.025 8.77506 8.825 5.00006 13.5 5.00006C15.775 5.00006 17.9 5.87506 19.6 7.57506L22.425 10.0751L26.2 6.72506L23.05 3.95006C21.7981 2.69338 20.3095 1.69727 18.6703 1.01928C17.0311 0.341298 15.2739 -0.0051171 13.5 5.71183e-05C6.05 5.71183e-05 0 6.05006 0 13.4501C0 20.8501 6.05 26.9001 13.5 26.9001C17.1 26.9001 20.5 25.5001 22.925 23.0751L40.5 7.47506C42.1 5.87506 44.225 5.00006 46.5 5.00006C51.175 5.00006 54.975 8.77506 54.975 13.4501C54.975 18.1251 51.175 21.9001 46.5 21.9001C44.25 21.9001 42.1 21.0251 40.4 19.3251L37.55 16.8001L33.775 20.1501L36.95 22.9501C38.2053 24.2004 39.6951 25.1908 41.3338 25.8643C42.9726 26.5378 44.7282 26.8813 46.5 26.8751C53.95 26.8751 60 20.8501 60 13.4251C60 6.00006 53.95 5.71183e-05 46.5 5.71183e-05Z" fill="currentColor"/>
	</symbol>

	<!--width="14" height="14" viewBox="0 0 14 14" -->
	<symbol id="remove" fill="none">
		<path d="M11 6V12H3V6H11ZM9 0H5L4 1H0V3H4L5 2H9L10 3H14V1H10L9 0ZM13 4H1V12C1 13.1 1.9 14 3 14H11C12.1 14 13 13.1 13 12V4Z" fill="currentColor"/>
	</symbol>	

	<!--width="11" height="7" viewBox="0 0 11 7" -->
	<symbol id="fc-caret-1" fill="none">
		<path d="M10 1L5.5 5.5L1 1" stroke="currentColor" stroke-width="2" stroke-linejoin="round"/>
	</symbol>	

	<!--width="11" height="6" viewBox="0 0 11 6" -->
	<symbol id="fc-caret-2" fill="none">
		<path d="M10 1L5.5 5.5L1 1" stroke="#93A0B9" stroke-linejoin="round"/>
	</symbol>	

	<!--width="16" height="9" -->
	<symbol id="vk" fill="none">
		<path fill-rule="evenodd" clip-rule="evenodd" d="M7.85229 8.94342H8.82238C8.82238 8.94342 9.1134 8.89585 9.25892 8.75314C9.40443 8.61042 9.40443 8.32499 9.40443 8.32499C9.40443 8.32499 9.40443 7.08814 9.98648 6.89785C10.5685 6.70757 11.3446 8.13471 12.1207 8.65799C12.7027 9.08613 13.1393 8.99099 13.1393 8.99099L15.2734 8.94342C15.2734 8.94342 16.389 8.89585 15.8555 7.99199C15.807 7.94442 15.5645 7.37357 14.2548 6.18428C12.8967 4.94742 13.0907 5.18528 14.6914 3.04457C15.6615 1.76014 16.0495 0.998999 15.9525 0.618428C15.8555 0.285428 15.1279 0.380571 15.1279 0.380571H12.7027C12.7027 0.380571 12.5087 0.333 12.4117 0.428142C12.2662 0.523285 12.2177 0.665999 12.2177 0.665999C12.2177 0.665999 11.8296 1.665 11.3446 2.52128C10.2775 4.28142 9.84097 4.37657 9.69545 4.28142C9.30742 4.04357 9.40443 3.23485 9.40443 2.71157C9.40443 0.998999 9.69545 0.285428 8.87088 0.0951422C8.62836 0.0475708 8.43434 0 7.75529 0C6.88221 0 6.15465 -1.84306e-07 5.76661 0.190285C5.47559 0.333 5.28157 0.618428 5.42708 0.618428C5.5726 0.618428 5.96063 0.713571 6.15465 0.951428C6.34866 1.37957 6.34866 2.09314 6.34866 2.09314C6.34866 2.09314 6.49418 4.13871 6.00913 4.37657C5.6696 4.56685 5.23307 4.18628 4.26298 2.56885C3.77794 1.76014 3.38991 0.808713 3.38991 0.808713C3.38991 0.808713 3.3414 0.618428 3.19589 0.523286C3.05038 0.428143 2.80786 0.380571 2.80786 0.380571H0.528157C0.528157 0.380571 0.188628 0.380571 0.0431149 0.523286C-0.0538936 0.666 0.0431149 0.903856 0.0431149 0.903856C0.0431149 0.903856 1.83777 4.995 3.87495 7.08814C5.76661 9.08613 7.85229 8.94342 7.85229 8.94342Z" fill="currentColor"/>
	</symbol>	

	<!--width="7" height="14" -->
	<symbol id="fb" fill="none">
		<path d="M4.66667 4.66667V3.26667C4.66667 2.66 4.80667 2.33333 5.78667 2.33333H7V0H5.13333C2.8 0 1.86667 1.54 1.86667 3.26667V4.66667H0V7H1.86667V14H4.66667V7H6.72L7 4.66667H4.66667Z" fill="currentColor"/>
	</symbol>	

	<!--width="14" height="14" -->
	<symbol id="inst" fill="none">
		<path d="M6.99812 4.66567C5.71277 4.66567 4.66383 5.71463 4.66383 7C4.66383 8.28537 5.71277 9.33433 6.99812 9.33433C8.28346 9.33433 9.3324 8.28537 9.3324 7C9.3324 5.71463 8.28346 4.66567 6.99812 4.66567ZM13.9992 7C13.9992 6.03335 14.008 5.07545 13.9537 4.11055C13.8994 2.98979 13.6437 1.99512 12.8242 1.17556C12.0029 0.35426 11.01 0.100338 9.88927 0.0460516C8.92263 -0.00823506 7.96475 0.000520879 6.99987 0.000520879C6.03323 0.000520879 5.07536 -0.00823506 4.11047 0.0460516C2.98973 0.100338 1.99508 0.356011 1.17554 1.17556C0.354253 1.99687 0.100336 2.98979 0.0460508 4.11055C-0.00823491 5.0772 0.00052087 6.0351 0.00052087 7C0.00052087 7.9649 -0.00823491 8.92455 0.0460508 9.88945C0.100336 11.0102 0.356004 12.0049 1.17554 12.8244C1.99683 13.6457 2.98973 13.8997 4.11047 13.9539C5.07711 14.0082 6.03499 13.9995 6.99987 13.9995C7.9665 13.9995 8.92438 14.0082 9.88927 13.9539C11.01 13.8997 12.0047 13.644 12.8242 12.8244C13.6455 12.0031 13.8994 11.0102 13.9537 9.88945C14.0097 8.92455 13.9992 7.96665 13.9992 7ZM6.99812 10.5917C5.01056 10.5917 3.40651 8.98759 3.40651 7C3.40651 5.01241 5.01056 3.40832 6.99812 3.40832C8.98567 3.40832 10.5897 5.01241 10.5897 7C10.5897 8.98759 8.98567 10.5917 6.99812 10.5917ZM10.7368 4.10004C10.2728 4.10004 9.89802 3.72529 9.89802 3.26122C9.89802 2.79716 10.2728 2.42241 10.7368 2.42241C11.2009 2.42241 11.5756 2.79716 11.5756 3.26122C11.5758 3.37142 11.5542 3.48056 11.5121 3.58239C11.47 3.68422 11.4082 3.77675 11.3303 3.85467C11.2523 3.93258 11.1598 3.99437 11.058 4.03647C10.9562 4.07858 10.847 4.10018 10.7368 4.10004Z" fill="currentColor"/>
	</symbol>	

	<!--width="14" height="11" -->
	<symbol id="telega" fill="none">
		<path d="M13.055 0.0723276L0.653714 4.55255C-0.192625 4.87102 -0.187729 5.31334 0.498435 5.51059L3.68235 6.4411L11.049 2.08669C11.3973 1.88814 11.7156 1.99495 11.454 2.21251L5.48554 7.2589H5.48414L5.48554 7.25956L5.26591 10.3342C5.58766 10.3342 5.72965 10.1959 5.91011 10.0327L7.4566 8.62387L10.6734 10.8499C11.2665 11.1559 11.6925 10.9986 11.8401 10.3355L13.9517 1.01201C14.1679 0.200109 13.6209 -0.167509 13.055 0.0723276Z" fill="currentColor"/>
	</symbol>	
</svg>
