<svg width="228" height="42" viewBox="0 0 228 42" fill="none" xmlns="http://www.w3.org/2000/svg">
<g clip-path="url(#clip0)">
<path d="M62.4579 27.4653C62.4579 28.3169 61.9605 28.7427 61.0369 28.7427C60.1843 28.7427 59.7581 28.3169 59.7581 27.4653V14.4788C59.7581 13.6983 60.1843 13.2725 61.0369 13.2725C62.0316 13.2725 62.5289 13.6983 62.5289 14.4788V27.4653H62.4579Z" fill="white"/>
<path d="M89.2409 13.2725C89.0277 13.2725 88.8856 13.2725 88.7435 13.3434C88.6725 13.3434 88.6725 13.3434 88.6015 13.3434C88.5304 13.3434 88.4594 13.4144 88.3883 13.4144C88.3173 13.4144 88.2462 13.4853 88.1752 13.4853L78.5132 19.5883L68.9227 13.5563C68.8517 13.4853 68.7806 13.4853 68.7096 13.4853C68.6385 13.4853 68.5675 13.4144 68.4964 13.4144C68.4254 13.4144 68.4254 13.4144 68.3543 13.4144C68.1412 13.2725 67.9991 13.2725 67.786 13.2725C66.9334 13.2725 66.5071 13.6983 66.5071 14.4788V27.4653C66.5071 28.3169 66.9334 28.7427 67.857 28.7427C68.7806 28.7427 69.278 28.3169 69.278 27.4653V16.9626L77.8742 22.3559C78.0874 22.4978 78.3 22.5688 78.5132 22.5688H78.6553C78.8684 22.5688 79.0816 22.4978 79.2947 22.3559L87.891 16.9626V27.4653C87.891 28.3169 88.3883 28.7427 89.3119 28.7427C90.1645 28.7427 90.6618 28.3169 90.6618 27.4653V14.4788C90.5197 13.6983 90.0934 13.2725 89.2409 13.2725Z" fill="white"/>
<path d="M136.342 13.2725C135.489 13.2725 135.063 13.6983 135.063 14.4788V24.7687L120.357 13.6273C120.286 13.5563 120.144 13.4853 120.073 13.4144C119.931 13.3434 119.788 13.2725 119.646 13.2725C119.504 13.2725 119.362 13.2725 119.149 13.2725C118.297 13.2725 117.871 13.6983 117.871 14.4788V27.4653C117.871 28.3169 118.297 28.7427 119.22 28.7427C120.144 28.7427 120.641 28.3169 120.641 27.4653V17.2465L135.418 28.3879C135.489 28.4588 135.56 28.4588 135.631 28.5298C135.844 28.6717 136.128 28.7427 136.484 28.7427C137.407 28.7427 137.904 28.3169 137.904 27.4653V14.4788C137.833 13.6983 137.336 13.2725 136.342 13.2725Z" fill="white"/>
<path d="M154.244 13.2725H148.774C143.801 13.2725 141.314 14.6918 141.314 17.4593V27.3944C141.314 28.2459 141.741 28.6717 142.735 28.6717C143.659 28.6717 144.156 28.2459 144.156 27.3944V22.214H158.933V27.4653C158.933 28.3169 159.359 28.7427 160.354 28.7427C161.277 28.7427 161.775 28.3169 161.775 27.4653V17.5303C161.775 14.6918 159.288 13.2725 154.244 13.2725ZM144.156 19.9431V17.4593C144.156 16.182 145.506 15.5433 147.992 15.5433H155.026C157.583 15.5433 158.862 16.182 158.862 17.4593V19.8721H144.156V19.9431Z" fill="white"/>
<path d="M113.892 15.6143C114.389 15.6143 114.816 15.1885 114.816 14.6918V14.195C114.816 13.6983 114.389 13.2725 113.892 13.2725H94.9237C94.4974 13.2725 94.2133 13.5563 94.2133 13.9821V23.9171C94.2133 27.1105 96.842 28.6717 102.099 28.6717H113.963C114.531 28.6717 114.958 28.2459 114.958 27.6782V27.2524C114.958 26.6847 114.531 26.2589 113.963 26.2589H101.389C98.5471 26.2589 97.0551 25.5493 97.0551 24.201V22.143H111.193C111.69 22.143 112.116 21.7172 112.116 21.2205V20.7947C112.116 20.2979 111.69 19.8721 111.193 19.8721H96.9841V15.6143H113.892Z" fill="white"/>
<rect x="168.584" y="9.11719" width="59.4163" height="23.7665" rx="6" fill="#ED6B6A"/>
<path d="M181.358 13.7439C182.692 13.7439 183.847 13.9581 184.822 14.3866C185.812 14.8151 186.572 15.4233 187.103 16.2111C187.634 16.9989 187.899 17.9319 187.899 19.01C187.899 20.0743 187.634 21.0072 187.103 21.8089C186.572 22.5967 185.812 23.2049 184.822 23.6334C183.847 24.048 182.692 24.2554 181.358 24.2554H178.324V28.2568H174.838V13.7439H181.358ZM181.164 21.5187C182.211 21.5187 183.007 21.3044 183.553 20.8759C184.098 20.4336 184.37 19.8117 184.37 19.01C184.37 18.1945 184.098 17.5725 183.553 17.1441C183.007 16.7018 182.211 16.4806 181.164 16.4806H178.324V21.5187H181.164Z" fill="white"/>
<path d="M199.984 28.2568L197.079 24.2139H193.873V28.2568H190.388V13.7439H196.907C198.241 13.7439 199.396 13.9581 200.372 14.3866C201.361 14.8151 202.122 15.4233 202.652 16.2111C203.183 16.9989 203.449 17.9319 203.449 19.01C203.449 20.0881 203.176 21.0211 202.631 21.8089C202.1 22.5829 201.34 23.1773 200.35 23.5919L203.728 28.2568H199.984ZM199.92 19.01C199.92 18.1945 199.647 17.5725 199.102 17.1441C198.557 16.7018 197.761 16.4806 196.714 16.4806H193.873V21.5394H196.714C197.761 21.5394 198.557 21.3182 199.102 20.8759C199.647 20.4336 199.92 19.8117 199.92 19.01Z" fill="white"/>
<path d="M213.505 28.5055C211.941 28.5055 210.528 28.1807 209.266 27.5311C208.018 26.8815 207.035 25.99 206.318 24.8566C205.615 23.7094 205.264 22.424 205.264 21.0003C205.264 19.5767 205.615 18.2982 206.318 17.1648C207.035 16.0176 208.018 15.1192 209.266 14.4696C210.528 13.8199 211.941 13.4951 213.505 13.4951C215.068 13.4951 216.474 13.8199 217.722 14.4696C218.97 15.1192 219.953 16.0176 220.67 17.1648C221.387 18.2982 221.746 19.5767 221.746 21.0003C221.746 22.424 221.387 23.7094 220.67 24.8566C219.953 25.99 218.97 26.8815 217.722 27.5311C216.474 28.1807 215.068 28.5055 213.505 28.5055ZM213.505 25.6444C214.394 25.6444 215.197 25.4509 215.915 25.0639C216.632 24.6631 217.191 24.1102 217.593 23.4053C218.009 22.7004 218.217 21.8987 218.217 21.0003C218.217 20.1019 218.009 19.3003 217.593 18.5953C217.191 17.8904 216.632 17.3445 215.915 16.9575C215.197 16.5566 214.394 16.3562 213.505 16.3562C212.615 16.3562 211.812 16.5566 211.095 16.9575C210.377 17.3445 209.811 17.8904 209.395 18.5953C208.993 19.3003 208.792 20.1019 208.792 21.0003C208.792 21.8987 208.993 22.7004 209.395 23.4053C209.811 24.1102 210.377 24.6631 211.095 25.0639C211.812 25.4509 212.615 25.6444 213.505 25.6444Z" fill="white"/>
<g opacity="0.25">
<path opacity="0.25" d="M21.1514 20.8921C21.1514 20.8921 40.6084 36.5613 41.5922 37.5305C42.576 38.4998 42.576 40.0613 41.5922 41.0305C40.6084 41.9998 39.0234 41.9998 38.0397 41.0305C37.0559 40.0613 21.1514 20.8921 21.1514 20.8921Z" fill="#D60B52"/>
<path opacity="0.25" d="M21.1516 22.2383C21.1516 22.2383 18.6375 37.8537 18.6375 39.2537C18.6375 40.5998 19.7852 41.7306 21.1516 41.7306C22.5179 41.7306 23.6657 40.5998 23.6657 39.2537C23.7203 37.8537 21.1516 22.2383 21.1516 22.2383Z" fill="#AE0E16"/>
<path opacity="0.25" d="M21.1513 20.8921C21.1513 20.8921 1.69428 36.5613 0.710496 37.5305C-0.27329 38.4998 -0.27329 40.0613 0.710496 41.0305C1.69428 41.9998 3.27926 41.9998 4.26305 41.0305C5.24683 40.0613 21.1513 20.8921 21.1513 20.8921Z" fill="#ED6B6A"/>
<path opacity="0.25" d="M20.7689 21.5386C20.7689 21.5386 10.2205 36.8847 9.61932 38.1232C8.96347 39.3617 9.45536 40.8155 10.7124 41.4617C11.9695 42.1078 13.4451 41.6232 14.101 40.3847C14.7022 39.1463 20.7689 21.5386 20.7689 21.5386Z" fill="#4CB4E7"/>
<path opacity="0.25" d="M21.5885 21.5386C21.5885 21.5386 32.1369 36.8847 32.7381 38.1232C33.3939 39.3617 32.902 40.8155 31.645 41.4617C30.3879 42.1078 28.9122 41.6232 28.2564 40.3847C27.6005 39.1463 21.5885 21.5386 21.5885 21.5386Z" fill="#4E55A2"/>
<path opacity="0.25" d="M21.1516 19.4923C21.1516 19.4923 18.6375 3.87692 18.6375 2.47692C18.6375 1.13077 19.7852 0 21.1516 0C22.5179 0 23.6657 1.13077 23.6657 2.47692C23.7203 3.82308 21.1516 19.4923 21.1516 19.4923Z" fill="#0098AD"/>
<path opacity="0.25" d="M21.1522 20.839C21.1522 20.839 1.69513 5.16979 0.711351 4.20056C-0.272436 3.23133 -0.272436 1.66979 0.711351 0.700558C1.69513 -0.268676 3.28012 -0.268676 4.2639 0.700558C5.24769 1.66979 21.1522 20.839 21.1522 20.839Z" fill="#FCEC45"/>
<path opacity="0.25" d="M21.1514 20.8385C21.1514 20.8385 40.6084 5.1693 41.5922 4.20007C42.576 3.23084 42.576 1.6693 41.5922 0.70007C40.6084 -0.269164 39.0234 -0.269164 38.0397 0.70007C37.0559 1.6693 21.1514 20.8385 21.1514 20.8385Z" fill="#007787"/>
<path opacity="0.25" d="M20.7689 20.1924C20.7689 20.1924 10.2205 4.84624 9.61932 3.60778C8.96347 2.36932 9.45536 0.915472 10.7124 0.26932C11.9695 -0.376834 13.4451 0.107781 14.101 1.34624C14.7022 2.5847 20.7689 20.1924 20.7689 20.1924Z" fill="#E71D73"/>
<path opacity="0.25" d="M21.5885 20.1924C21.5885 20.1924 32.1369 4.84624 32.7381 3.60778C33.3939 2.36932 32.902 0.915472 31.645 0.26932C30.3879 -0.376834 28.9122 0.107781 28.2564 1.34624C27.6005 2.5847 21.5885 20.1924 21.5885 20.1924Z" fill="#951B81"/>
<path opacity="0.25" d="M22.5721 20.8387C22.5721 20.8387 38.422 23.3157 39.843 23.3157C41.2094 23.3157 42.3571 22.1849 42.3571 20.8387C42.3571 19.4926 41.2094 18.3618 39.843 18.3618C38.422 18.3618 22.5721 20.8387 22.5721 20.8387Z" fill="#A3195B"/>
<path opacity="0.25" d="M21.8617 21.269C21.8617 21.269 37.4383 31.6614 38.6953 32.2537C39.9524 32.8998 41.4281 32.4152 42.0839 31.1767C42.7398 29.9383 42.2479 28.4844 40.9908 27.8383C39.7338 27.1921 21.8617 21.269 21.8617 21.269Z" fill="#FBBA00"/>
<path opacity="0.25" d="M22.0806 20.8387C22.0806 20.8387 29.131 23.3157 30.4974 23.3157C31.8637 23.3157 33.0115 22.1849 33.0115 20.8387C33.0115 19.4926 31.8637 18.3618 30.4974 18.3618C29.131 18.3618 22.0806 20.8387 22.0806 20.8387Z" fill="#EC6608"/>
<path opacity="0.25" d="M21.8617 20.4615C21.8617 20.4615 37.4383 10.0691 38.6953 9.47684C39.9524 8.83069 41.4281 9.3153 42.0839 10.5538C42.7398 11.7922 42.2479 13.2461 40.9908 13.8922C39.7338 14.4845 21.8617 20.4615 21.8617 20.4615Z" fill="#CA9E67"/>
<path opacity="0.25" d="M19.7849 20.8387C19.7849 20.8387 3.93501 23.3157 2.51399 23.3157C1.14763 23.3157 -0.00012207 22.1849 -0.00012207 20.8387C-0.00012207 19.4926 1.14763 18.3618 2.51399 18.3618C3.88036 18.3618 19.7849 20.8387 19.7849 20.8387Z" fill="#E30613"/>
<path opacity="0.25" d="M20.2771 20.8387C20.2771 20.8387 13.2267 23.3157 11.8603 23.3157C10.4939 23.3157 9.34619 22.1849 9.34619 20.8387C9.34619 19.4926 10.4939 18.3618 11.8603 18.3618C13.2267 18.3618 20.2771 20.8387 20.2771 20.8387Z" fill="#2FAC66"/>
<path opacity="0.25" d="M20.4957 21.269C20.4957 21.269 4.91914 31.6614 3.66208 32.2537C2.40503 32.8998 0.929352 32.4152 0.273498 31.1767C-0.382358 29.9383 0.109534 28.4844 1.36659 27.8383C2.62365 27.1921 20.4957 21.269 20.4957 21.269Z" fill="#78C7C9"/>
<path opacity="0.25" d="M20.4957 20.4615C20.4957 20.4615 4.91914 10.0691 3.66208 9.47684C2.40503 8.83069 0.929352 9.3153 0.273498 10.5538C-0.382358 11.7922 0.109534 13.2461 1.36659 13.8922C2.62365 14.4845 20.4957 20.4615 20.4957 20.4615Z" fill="#31B7BC"/>
<path opacity="0.25" d="M20.058 21.9692C20.058 21.9692 11.04 27.3539 10.0562 28.3231C9.07241 29.2923 9.07241 30.8539 10.0562 31.8231C11.04 32.7923 12.625 32.7923 13.6088 31.8231C14.5925 30.8539 20.058 21.9692 20.058 21.9692Z" fill="#ED6EA7"/>
<path opacity="0.25" d="M21.1516 21.7539C21.1516 21.7539 18.6375 28.7001 18.6375 30.0462C18.6375 31.3924 19.7852 32.5231 21.1516 32.5231C22.5179 32.5231 23.6657 31.3924 23.6657 30.0462C23.7203 28.7001 21.1516 21.7539 21.1516 21.7539Z" fill="#004D88"/>
<path opacity="0.25" d="M22.2444 21.9692C22.2444 21.9692 31.2624 27.3539 32.2462 28.3231C33.23 29.2923 33.23 30.8539 32.2462 31.8231C31.2624 32.7923 29.6774 32.7923 28.6936 31.8231C27.7099 30.8539 22.2444 21.9692 22.2444 21.9692Z" fill="#3AAA35"/>
<path opacity="0.25" d="M20.058 19.7614C20.058 19.7614 11.04 14.3768 10.0562 13.4076C9.07241 12.4384 9.07241 10.8768 10.0562 9.90759C11.04 8.93836 12.625 8.93836 13.6088 9.90759C14.5925 10.8768 20.058 19.7614 20.058 19.7614Z" fill="#2A6AB2"/>
<path opacity="0.25" d="M21.1516 19.9772C21.1516 19.9772 18.6375 13.0311 18.6375 11.6849C18.6375 10.3388 19.7852 9.20801 21.1516 9.20801C22.5179 9.20801 23.6657 10.3388 23.6657 11.6849C23.7203 13.0311 21.1516 19.9772 21.1516 19.9772Z" fill="#E35197"/>
<path opacity="0.25" d="M22.2444 19.7614C22.2444 19.7614 31.2624 14.3768 32.2462 13.4076C33.23 12.4384 33.23 10.8768 32.2462 9.90759C31.2624 8.93836 29.6774 8.93836 28.6936 9.90759C27.7099 10.8768 22.2444 19.7614 22.2444 19.7614Z" fill="#95C11F"/>
</g>
<path d="M39.843 41.7307C38.4766 41.7307 37.3289 40.5999 37.3289 39.2538C37.3289 37.9076 38.4766 36.7769 39.843 36.7769C41.2093 36.7769 42.3571 37.9076 42.3571 39.2538C42.3571 40.5999 41.2093 41.7307 39.843 41.7307Z" fill="#D60B52"/>
<path d="M2.51399 23.3152C1.14763 23.3152 -0.00012207 22.1844 -0.00012207 20.8383C-0.00012207 19.4921 1.14763 18.3613 2.51399 18.3613C3.88036 18.3613 5.02811 19.4921 5.02811 20.8383C5.02811 22.2383 3.93501 23.3152 2.51399 23.3152Z" fill="#E30613"/>
<path d="M11.8597 23.3152C10.4933 23.3152 9.34558 22.1844 9.34558 20.8383C9.34558 19.4921 10.4933 18.3613 11.8597 18.3613C13.2261 18.3613 14.3738 19.4921 14.3738 20.8383C14.3738 22.2383 13.2261 23.3152 11.8597 23.3152Z" fill="#2FAC66"/>
<path d="M30.4973 23.3152C29.1309 23.3152 27.9832 22.1844 27.9832 20.8383C27.9832 19.4921 29.1309 18.3613 30.4973 18.3613C31.8636 18.3613 33.0114 19.4921 33.0114 20.8383C33.0114 22.2383 31.8636 23.3152 30.4973 23.3152Z" fill="#EC6608"/>
<path d="M39.843 23.3152C38.4766 23.3152 37.3289 22.1844 37.3289 20.8383C37.3289 19.4921 38.4766 18.3613 39.843 18.3613C41.2093 18.3613 42.3571 19.4921 42.3571 20.8383C42.3571 22.2383 41.2093 23.3152 39.843 23.3152Z" fill="#A3195B"/>
<path d="M2.51399 14.1614C1.14763 14.1614 -0.00012207 13.0306 -0.00012207 11.6844C-0.00012207 10.3383 1.14763 9.20752 2.51399 9.20752C3.88036 9.20752 5.02811 10.3383 5.02811 11.6844C5.02811 13.0306 3.93501 14.1614 2.51399 14.1614Z" fill="#31B7BC"/>
<path d="M11.8597 14.1614C10.4933 14.1614 9.34558 13.0306 9.34558 11.6844C9.34558 10.3383 10.4933 9.20752 11.8597 9.20752C13.2261 9.20752 14.3738 10.3383 14.3738 11.6844C14.3738 13.0306 13.2261 14.1614 11.8597 14.1614Z" fill="#2A6AB2"/>
<path d="M39.843 14.1614C38.4766 14.1614 37.3289 13.0306 37.3289 11.6844C37.3289 10.3383 38.4766 9.20752 39.843 9.20752C41.2093 9.20752 42.3571 10.3383 42.3571 11.6844C42.3571 13.0306 41.2093 14.1614 39.843 14.1614Z" fill="#CA9E67"/>
<path d="M2.51399 41.7307C1.14763 41.7307 -0.00012207 40.5999 -0.00012207 39.2538C-0.00012207 37.9076 1.14763 36.7769 2.51399 36.7769C3.88036 36.7769 5.02811 37.9076 5.02811 39.2538C5.02811 40.5999 3.93501 41.7307 2.51399 41.7307Z" fill="#ED6B6A"/>
<path d="M11.8597 41.7307C10.4933 41.7307 9.34558 40.5999 9.34558 39.2538C9.34558 37.9076 10.4933 36.7769 11.8597 36.7769C13.2261 36.7769 14.3738 37.9076 14.3738 39.2538C14.3738 40.5999 13.2261 41.7307 11.8597 41.7307Z" fill="#4CB4E7"/>
<path d="M21.1511 41.7307C19.7847 41.7307 18.637 40.5999 18.637 39.2538C18.637 37.9076 19.7847 36.7769 21.1511 36.7769C22.5174 36.7769 23.6652 37.9076 23.6652 39.2538C23.7198 40.5999 22.5721 41.7307 21.1511 41.7307Z" fill="#AE0E16"/>
<path d="M30.4973 41.7307C29.1309 41.7307 27.9832 40.5999 27.9832 39.2538C27.9832 37.9076 29.1309 36.7769 30.4973 36.7769C31.8636 36.7769 33.0114 37.9076 33.0114 39.2538C33.0114 40.5999 31.8636 41.7307 30.4973 41.7307Z" fill="#4E55A2"/>
<path d="M2.51399 32.5232C1.14763 32.5232 -0.00012207 31.3924 -0.00012207 30.0463C-0.00012207 28.7001 1.14763 27.5693 2.51399 27.5693C3.88036 27.5693 5.02811 28.7001 5.02811 30.0463C5.02811 31.3924 3.93501 32.5232 2.51399 32.5232Z" fill="#78C7C9"/>
<path d="M11.8597 32.5232C10.4933 32.5232 9.34558 31.3924 9.34558 30.0463C9.34558 28.7001 10.4933 27.5693 11.8597 27.5693C13.2261 27.5693 14.3738 28.7001 14.3738 30.0463C14.3738 31.3924 13.2261 32.5232 11.8597 32.5232Z" fill="#ED6EA7"/>
<path d="M21.1511 32.5232C19.7847 32.5232 18.637 31.3924 18.637 30.0463C18.637 28.7001 19.7847 27.5693 21.1511 27.5693C22.5174 27.5693 23.6652 28.7001 23.6652 30.0463C23.7198 31.3924 22.5721 32.5232 21.1511 32.5232Z" fill="#004D88"/>
<path d="M30.4973 32.5232C29.1309 32.5232 27.9832 31.3924 27.9832 30.0463C27.9832 28.7001 29.1309 27.5693 30.4973 27.5693C31.8636 27.5693 33.0114 28.7001 33.0114 30.0463C33.0114 31.3924 31.8636 32.5232 30.4973 32.5232Z" fill="#3AAA35"/>
<path d="M39.843 32.5232C38.4766 32.5232 37.3289 31.3924 37.3289 30.0463C37.3289 28.7001 38.4766 27.5693 39.843 27.5693C41.2093 27.5693 42.3571 28.7001 42.3571 30.0463C42.3571 31.3924 41.2093 32.5232 39.843 32.5232Z" fill="#FBBA00"/>
<path d="M2.51399 4.95385C1.14763 4.95385 -0.00012207 3.82308 -0.00012207 2.47692C-0.00012207 1.13077 1.14763 0 2.51399 0C3.88036 0 5.02811 1.13077 5.02811 2.47692C5.02811 3.82308 3.93501 4.95385 2.51399 4.95385Z" fill="#FCEC45"/>
<path d="M11.8597 4.95385C10.4933 4.95385 9.34558 3.82308 9.34558 2.47692C9.34558 1.13077 10.4933 0 11.8597 0C13.2261 0 14.3738 1.13077 14.3738 2.47692C14.3738 3.82308 13.2261 4.95385 11.8597 4.95385Z" fill="#E71D73"/>
<path d="M21.1511 4.95385C19.7847 4.95385 18.637 3.82308 18.637 2.47692C18.637 1.13077 19.7847 0 21.1511 0C22.5174 0 23.6652 1.13077 23.6652 2.47692C23.7198 3.82308 22.5721 4.95385 21.1511 4.95385Z" fill="#0098AD"/>
<path d="M30.4973 4.95385C29.1309 4.95385 27.9832 3.82308 27.9832 2.47692C27.9832 1.13077 29.1309 0 30.4973 0C31.8636 0 33.0114 1.13077 33.0114 2.47692C33.0114 3.82308 31.8636 4.95385 30.4973 4.95385Z" fill="#951B81"/>
<path d="M39.843 4.95385C38.4766 4.95385 37.3289 3.82308 37.3289 2.47692C37.3289 1.13077 38.4766 0 39.843 0C41.2093 0 42.3571 1.13077 42.3571 2.47692C42.3571 3.82308 41.2093 4.95385 39.843 4.95385Z" fill="#007787"/>
<path d="M30.4973 14.1614C29.1309 14.1614 27.9832 13.0306 27.9832 11.6844C27.9832 10.3383 29.1309 9.20752 30.4973 9.20752C31.8636 9.20752 33.0114 10.3383 33.0114 11.6844C33.0114 13.0306 31.8636 14.1614 30.4973 14.1614Z" fill="#95C11F"/>
<path d="M21.1511 23.3152C19.7847 23.3152 18.637 22.1844 18.637 20.8383C18.637 19.4921 19.7847 18.3613 21.1511 18.3613C22.5174 18.3613 23.6652 19.4921 23.6652 20.8383C23.7198 22.2383 22.5721 23.3152 21.1511 23.3152Z" fill="#FFED00"/>
<path d="M21.1511 14.1614C19.7847 14.1614 18.637 13.0306 18.637 11.6844C18.637 10.3383 19.7847 9.20752 21.1511 9.20752C22.5174 9.20752 23.6652 10.3383 23.6652 11.6844C23.7198 13.0306 22.5721 14.1614 21.1511 14.1614Z" fill="#E35197"/>
</g>
<defs>
<clipPath id="clip0">
<rect width="228" height="42" fill="white"/>
</clipPath>
</defs>
</svg>
