<svg width="47" height="46" viewBox="0 0 47 46" fill="none" xmlns="http://www.w3.org/2000/svg">
<g opacity="0.25">
<path opacity="0.25" d="M23.0117 22.8818C23.0117 22.8818 44.1793 40.0434 45.2496 41.1049C46.3198 42.1664 46.3198 43.8767 45.2496 44.9382C44.1793 45.9998 42.455 45.9998 41.3847 44.9382C40.3144 43.8767 23.0117 22.8818 23.0117 22.8818Z" fill="#D60B52"/>
<path opacity="0.25" d="M23.0115 24.3564C23.0115 24.3564 20.2764 41.459 20.2764 42.9923C20.2764 44.4667 21.525 45.7052 23.0115 45.7052C24.498 45.7052 25.7466 44.4667 25.7466 42.9923C25.8061 41.459 23.0115 24.3564 23.0115 24.3564Z" fill="#AE0E16"/>
<path opacity="0.25" d="M23.0112 22.8818C23.0112 22.8818 1.84368 40.0434 0.773408 41.1049C-0.296865 42.1664 -0.296865 43.8767 0.773408 44.9382C1.84368 45.9998 3.568 45.9998 4.63827 44.9382C5.70854 43.8767 23.0112 22.8818 23.0112 22.8818Z" fill="#ED6B6A"/>
<path opacity="0.25" d="M22.5954 23.5898C22.5954 23.5898 11.1197 40.3975 10.4657 41.7539C9.75217 43.1104 10.2873 44.7027 11.6549 45.4104C13.0224 46.118 14.6278 45.5873 15.3414 44.2309C15.9954 42.8745 22.5954 23.5898 22.5954 23.5898Z" fill="#4CB4E7"/>
<path opacity="0.25" d="M23.4863 23.5898C23.4863 23.5898 34.962 40.3975 35.6161 41.7539C36.3296 43.1104 35.7944 44.7027 34.4269 45.4104C33.0593 46.118 31.4539 45.5873 30.7404 44.2309C30.0269 42.8745 23.4863 23.5898 23.4863 23.5898Z" fill="#4E55A2"/>
<path opacity="0.25" d="M23.0115 21.3487C23.0115 21.3487 20.2764 4.24615 20.2764 2.71282C20.2764 1.23846 21.525 0 23.0115 0C24.498 0 25.7466 1.23846 25.7466 2.71282C25.8061 4.18718 23.0115 21.3487 23.0115 21.3487Z" fill="#0098AD"/>
<path opacity="0.25" d="M23.0122 22.8238C23.0122 22.8238 1.84465 5.66222 0.774385 4.60068C-0.295889 3.53914 -0.295889 1.82889 0.774385 0.767347C1.84465 -0.294194 3.56898 -0.294194 4.63925 0.767347C5.70952 1.82889 23.0122 22.8238 23.0122 22.8238Z" fill="#FCEC45"/>
<path opacity="0.25" d="M23.0117 22.8233C23.0117 22.8233 44.1793 5.66173 45.2496 4.60019C46.3198 3.53865 46.3198 1.8284 45.2496 0.766859C44.1793 -0.294682 42.455 -0.294682 41.3847 0.766859C40.3144 1.8284 23.0117 22.8233 23.0117 22.8233Z" fill="#007787"/>
<path opacity="0.25" d="M22.5954 22.1157C22.5954 22.1157 11.1197 5.30795 10.4657 3.95154C9.75217 2.59513 10.2873 1.00282 11.6549 0.295132C13.0224 -0.41256 14.6278 0.118209 15.3414 1.47462C15.9954 2.83103 22.5954 22.1157 22.5954 22.1157Z" fill="#E71D73"/>
<path opacity="0.25" d="M23.4863 22.1157C23.4863 22.1157 34.962 5.30795 35.6161 3.95154C36.3296 2.59513 35.7944 1.00282 34.4269 0.295132C33.0593 -0.41256 31.4539 0.118209 30.7404 1.47462C30.0269 2.83103 23.4863 22.1157 23.4863 22.1157Z" fill="#951B81"/>
<path opacity="0.25" d="M24.5566 22.8237C24.5566 22.8237 41.7999 25.5365 43.3458 25.5365C44.8323 25.5365 46.081 24.298 46.081 22.8237C46.081 21.3493 44.8323 20.1108 43.3458 20.1108C41.7999 20.1108 24.5566 22.8237 24.5566 22.8237Z" fill="#A3195B"/>
<path opacity="0.25" d="M23.7842 23.2949C23.7842 23.2949 40.7301 34.677 42.0977 35.3257C43.4653 36.0334 45.0707 35.5026 45.7842 34.1462C46.4977 32.7898 45.9626 31.1975 44.595 30.4898C43.2274 29.7821 23.7842 23.2949 23.7842 23.2949Z" fill="#FBBA00"/>
<path opacity="0.25" d="M24.0225 22.8237C24.0225 22.8237 31.6927 25.5365 33.1792 25.5365C34.6657 25.5365 35.9144 24.298 35.9144 22.8237C35.9144 21.3493 34.6657 20.1108 33.1792 20.1108C31.6927 20.1108 24.0225 22.8237 24.0225 22.8237Z" fill="#EC6608"/>
<path opacity="0.25" d="M23.7842 22.4104C23.7842 22.4104 40.7301 11.0283 42.0977 10.3796C43.4653 9.67191 45.0707 10.2027 45.7842 11.5591C46.4977 12.9155 45.9626 14.5078 44.595 15.2155C43.2274 15.8642 23.7842 22.4104 23.7842 22.4104Z" fill="#CA9E67"/>
<path opacity="0.25" d="M21.5243 22.8237C21.5243 22.8237 4.28108 25.5365 2.73514 25.5365C1.24865 25.5365 0 24.298 0 22.8237C0 21.3493 1.24865 20.1108 2.73514 20.1108C4.22162 20.1108 21.5243 22.8237 21.5243 22.8237Z" fill="#E30613"/>
<path opacity="0.25" d="M22.0599 22.8237C22.0599 22.8237 14.3896 25.5365 12.9031 25.5365C11.4166 25.5365 10.168 24.298 10.168 22.8237C10.168 21.3493 11.4166 20.1108 12.9031 20.1108C14.3896 20.1108 22.0599 22.8237 22.0599 22.8237Z" fill="#2FAC66"/>
<path opacity="0.25" d="M22.2977 23.2949C22.2977 23.2949 5.35176 34.677 3.9842 35.3257C2.61663 36.0334 1.01122 35.5026 0.297712 34.1462C-0.415801 32.7898 0.119334 31.1975 1.4869 30.4898C2.85447 29.7821 22.2977 23.2949 22.2977 23.2949Z" fill="#78C7C9"/>
<path opacity="0.25" d="M22.2977 22.4104C22.2977 22.4104 5.35176 11.0283 3.9842 10.3796C2.61663 9.67191 1.01122 10.2027 0.297712 11.5591C-0.415801 12.9155 0.119334 14.5078 1.4869 15.2155C2.85447 15.8642 22.2977 22.4104 22.2977 22.4104Z" fill="#31B7BC"/>
<path opacity="0.25" d="M21.8215 24.0615C21.8215 24.0615 12.0107 29.959 10.9404 31.0205C9.87013 32.082 9.87013 33.7923 10.9404 34.8538C12.0107 35.9154 13.735 35.9154 14.8053 34.8538C15.8755 33.7923 21.8215 24.0615 21.8215 24.0615Z" fill="#ED6EA7"/>
<path opacity="0.25" d="M23.0115 23.8262C23.0115 23.8262 20.2764 31.4339 20.2764 32.9082C20.2764 34.3826 21.525 35.621 23.0115 35.621C24.498 35.621 25.7466 34.3826 25.7466 32.9082C25.8061 31.4339 23.0115 23.8262 23.0115 23.8262Z" fill="#004D88"/>
<path opacity="0.25" d="M24.2002 24.0615C24.2002 24.0615 34.011 29.959 35.0813 31.0205C36.1515 32.082 36.1515 33.7923 35.0813 34.8538C34.011 35.9154 32.2867 35.9154 31.2164 34.8538C30.1461 33.7923 24.2002 24.0615 24.2002 24.0615Z" fill="#3AAA35"/>
<path opacity="0.25" d="M21.8215 21.6436C21.8215 21.6436 12.0107 15.7462 10.9404 14.6847C9.87013 13.6231 9.87013 11.9129 10.9404 10.8513C12.0107 9.78979 13.735 9.78979 14.8053 10.8513C15.8755 11.9129 21.8215 21.6436 21.8215 21.6436Z" fill="#2A6AB2"/>
<path opacity="0.25" d="M23.0115 21.8798C23.0115 21.8798 20.2764 14.2721 20.2764 12.7978C20.2764 11.3234 21.525 10.085 23.0115 10.085C24.498 10.085 25.7466 11.3234 25.7466 12.7978C25.8061 14.2721 23.0115 21.8798 23.0115 21.8798Z" fill="#E35197"/>
<path opacity="0.25" d="M24.2002 21.6436C24.2002 21.6436 34.011 15.7462 35.0813 14.6847C36.1515 13.6231 36.1515 11.9129 35.0813 10.8513C34.011 9.78979 32.2867 9.78979 31.2164 10.8513C30.1461 11.9129 24.2002 21.6436 24.2002 21.6436Z" fill="#95C11F"/>
</g>
<path d="M43.3465 45.7049C41.86 45.7049 40.6113 44.4665 40.6113 42.9921C40.6113 41.5178 41.86 40.2793 43.3465 40.2793C44.833 40.2793 46.0816 41.5178 46.0816 42.9921C46.0816 44.4665 44.833 45.7049 43.3465 45.7049Z" fill="#D60B52"/>
<path d="M2.73514 25.5355C1.24865 25.5355 0 24.297 0 22.8227C0 21.3483 1.24865 20.1099 2.73514 20.1099C4.22162 20.1099 5.47027 21.3483 5.47027 22.8227C5.47027 24.356 4.28108 25.5355 2.73514 25.5355Z" fill="#E30613"/>
<path d="M12.9031 25.5355C11.4166 25.5355 10.168 24.297 10.168 22.8227C10.168 21.3483 11.4166 20.1099 12.9031 20.1099C14.3896 20.1099 15.6382 21.3483 15.6382 22.8227C15.6382 24.356 14.3896 25.5355 12.9031 25.5355Z" fill="#2FAC66"/>
<path d="M33.1785 25.5355C31.692 25.5355 30.4434 24.297 30.4434 22.8227C30.4434 21.3483 31.692 20.1099 33.1785 20.1099C34.665 20.1099 35.9136 21.3483 35.9136 22.8227C35.9136 24.356 34.665 25.5355 33.1785 25.5355Z" fill="#EC6608"/>
<path d="M43.3465 25.5355C41.86 25.5355 40.6113 24.297 40.6113 22.8227C40.6113 21.3483 41.86 20.1099 43.3465 20.1099C44.833 20.1099 46.0816 21.3483 46.0816 22.8227C46.0816 24.356 44.833 25.5355 43.3465 25.5355Z" fill="#A3195B"/>
<path d="M2.73514 15.5101C1.24865 15.5101 0 14.2717 0 12.7973C0 11.3229 1.24865 10.0845 2.73514 10.0845C4.22162 10.0845 5.47027 11.3229 5.47027 12.7973C5.47027 14.2717 4.28108 15.5101 2.73514 15.5101Z" fill="#31B7BC"/>
<path d="M12.9031 15.5101C11.4166 15.5101 10.168 14.2717 10.168 12.7973C10.168 11.3229 11.4166 10.0845 12.9031 10.0845C14.3896 10.0845 15.6382 11.3229 15.6382 12.7973C15.6382 14.2717 14.3896 15.5101 12.9031 15.5101Z" fill="#2A6AB2"/>
<path d="M43.3465 15.5101C41.86 15.5101 40.6113 14.2717 40.6113 12.7973C40.6113 11.3229 41.86 10.0845 43.3465 10.0845C44.833 10.0845 46.0816 11.3229 46.0816 12.7973C46.0816 14.2717 44.833 15.5101 43.3465 15.5101Z" fill="#CA9E67"/>
<path d="M2.73514 45.7049C1.24865 45.7049 0 44.4665 0 42.9921C0 41.5178 1.24865 40.2793 2.73514 40.2793C4.22162 40.2793 5.47027 41.5178 5.47027 42.9921C5.47027 44.4665 4.28108 45.7049 2.73514 45.7049Z" fill="#ED6B6A"/>
<path d="M12.9031 45.7049C11.4166 45.7049 10.168 44.4665 10.168 42.9921C10.168 41.5178 11.4166 40.2793 12.9031 40.2793C14.3896 40.2793 15.6382 41.5178 15.6382 42.9921C15.6382 44.4665 14.3896 45.7049 12.9031 45.7049Z" fill="#4CB4E7"/>
<path d="M23.0105 45.7049C21.524 45.7049 20.2754 44.4665 20.2754 42.9921C20.2754 41.5178 21.524 40.2793 23.0105 40.2793C24.497 40.2793 25.7457 41.5178 25.7457 42.9921C25.8051 44.4665 24.5565 45.7049 23.0105 45.7049Z" fill="#AE0E16"/>
<path d="M33.1785 45.7049C31.692 45.7049 30.4434 44.4665 30.4434 42.9921C30.4434 41.5178 31.692 40.2793 33.1785 40.2793C34.665 40.2793 35.9136 41.5178 35.9136 42.9921C35.9136 44.4665 34.665 45.7049 33.1785 45.7049Z" fill="#4E55A2"/>
<path d="M2.73514 35.6205C1.24865 35.6205 0 34.382 0 32.9076C0 31.4333 1.24865 30.1948 2.73514 30.1948C4.22162 30.1948 5.47027 31.4333 5.47027 32.9076C5.47027 34.382 4.28108 35.6205 2.73514 35.6205Z" fill="#78C7C9"/>
<path d="M12.9031 35.6205C11.4166 35.6205 10.168 34.382 10.168 32.9076C10.168 31.4333 11.4166 30.1948 12.9031 30.1948C14.3896 30.1948 15.6382 31.4333 15.6382 32.9076C15.6382 34.382 14.3896 35.6205 12.9031 35.6205Z" fill="#ED6EA7"/>
<path d="M23.0105 35.6205C21.524 35.6205 20.2754 34.382 20.2754 32.9076C20.2754 31.4333 21.524 30.1948 23.0105 30.1948C24.497 30.1948 25.7457 31.4333 25.7457 32.9076C25.8051 34.382 24.5565 35.6205 23.0105 35.6205Z" fill="#004D88"/>
<path d="M33.1785 35.6205C31.692 35.6205 30.4434 34.382 30.4434 32.9076C30.4434 31.4333 31.692 30.1948 33.1785 30.1948C34.665 30.1948 35.9136 31.4333 35.9136 32.9076C35.9136 34.382 34.665 35.6205 33.1785 35.6205Z" fill="#3AAA35"/>
<path d="M43.3465 35.6205C41.86 35.6205 40.6113 34.382 40.6113 32.9076C40.6113 31.4333 41.86 30.1948 43.3465 30.1948C44.833 30.1948 46.0816 31.4333 46.0816 32.9076C46.0816 34.382 44.833 35.6205 43.3465 35.6205Z" fill="#FBBA00"/>
<path d="M2.73514 5.42564C1.24865 5.42564 0 4.18718 0 2.71282C0 1.23846 1.24865 0 2.73514 0C4.22162 0 5.47027 1.23846 5.47027 2.71282C5.47027 4.18718 4.28108 5.42564 2.73514 5.42564Z" fill="#FCEC45"/>
<path d="M12.9031 5.42564C11.4166 5.42564 10.168 4.18718 10.168 2.71282C10.168 1.23846 11.4166 0 12.9031 0C14.3896 0 15.6382 1.23846 15.6382 2.71282C15.6382 4.18718 14.3896 5.42564 12.9031 5.42564Z" fill="#E71D73"/>
<path d="M23.0105 5.42564C21.524 5.42564 20.2754 4.18718 20.2754 2.71282C20.2754 1.23846 21.524 0 23.0105 0C24.497 0 25.7457 1.23846 25.7457 2.71282C25.8051 4.18718 24.5565 5.42564 23.0105 5.42564Z" fill="#0098AD"/>
<path d="M33.1785 5.42564C31.692 5.42564 30.4434 4.18718 30.4434 2.71282C30.4434 1.23846 31.692 0 33.1785 0C34.665 0 35.9136 1.23846 35.9136 2.71282C35.9136 4.18718 34.665 5.42564 33.1785 5.42564Z" fill="#951B81"/>
<path d="M43.3465 5.42564C41.86 5.42564 40.6113 4.18718 40.6113 2.71282C40.6113 1.23846 41.86 0 43.3465 0C44.833 0 46.0816 1.23846 46.0816 2.71282C46.0816 4.18718 44.833 5.42564 43.3465 5.42564Z" fill="#007787"/>
<path d="M33.1785 15.5101C31.692 15.5101 30.4434 14.2717 30.4434 12.7973C30.4434 11.3229 31.692 10.0845 33.1785 10.0845C34.665 10.0845 35.9136 11.3229 35.9136 12.7973C35.9136 14.2717 34.665 15.5101 33.1785 15.5101Z" fill="#95C11F"/>
<path d="M23.0105 25.5355C21.524 25.5355 20.2754 24.297 20.2754 22.8227C20.2754 21.3483 21.524 20.1099 23.0105 20.1099C24.497 20.1099 25.7457 21.3483 25.7457 22.8227C25.8051 24.356 24.5565 25.5355 23.0105 25.5355Z" fill="#FFED00"/>
<path d="M23.0105 15.5101C21.524 15.5101 20.2754 14.2717 20.2754 12.7973C20.2754 11.3229 21.524 10.0845 23.0105 10.0845C24.497 10.0845 25.7457 11.3229 25.7457 12.7973C25.8051 14.2717 24.5565 15.5101 23.0105 15.5101Z" fill="#E35197"/>
</svg>
