<svg width="10" height="12" viewBox="0 0 10 12" fill="none" xmlns="http://www.w3.org/2000/svg">
<path fill-rule="evenodd" clip-rule="evenodd" d="M2.46281 2.5293C2.84869 2.28851 3.36485 2.39362 3.61567 2.76406L9.03234 10.7639C9.28316 11.1344 9.17367 11.6299 8.78779 11.8707C8.40191 12.1115 7.88576 12.0063 7.63493 11.6359L2.21826 3.63603C1.96744 3.26559 2.07693 2.77009 2.46281 2.5293Z" fill="white"/>
<path fill-rule="evenodd" clip-rule="evenodd" d="M7.5376 2.5293C7.15171 2.28851 6.63556 2.39362 6.38474 2.76406L0.968069 10.7639C0.717246 11.1344 0.826732 11.6299 1.21262 11.8707C1.5985 12.1115 2.11465 12.0063 2.36548 11.6359L7.78214 3.63603C8.03297 3.26559 7.92348 2.77009 7.5376 2.5293Z" fill="white"/>
<path fill-rule="evenodd" clip-rule="evenodd" d="M2.08333 2.39996C2.31345 2.39996 2.5 2.22088 2.5 1.99997C2.5 1.77906 2.31345 1.59997 2.08333 1.59997C1.85321 1.59997 1.66667 1.77906 1.66667 1.99997C1.66667 2.22088 1.85321 2.39996 2.08333 2.39996ZM2.08333 3.99994C3.23393 3.99994 4.16667 3.10452 4.16667 1.99997C4.16667 0.895416 3.23393 0 2.08333 0C0.93274 0 0 0.895416 0 1.99997C0 3.10452 0.93274 3.99994 2.08333 3.99994Z" fill="white"/>
<path fill-rule="evenodd" clip-rule="evenodd" d="M7.91667 2.39996C8.14678 2.39996 8.33333 2.22088 8.33333 1.99997C8.33333 1.77906 8.14678 1.59997 7.91667 1.59997C7.68655 1.59997 7.5 1.77906 7.5 1.99997C7.5 2.22088 7.68655 2.39996 7.91667 2.39996ZM7.91667 3.99994C9.06726 3.99994 10 3.10452 10 1.99997C10 0.895416 9.06726 0 7.91667 0C6.76607 0 5.83333 0.895416 5.83333 1.99997C5.83333 3.10452 6.76607 3.99994 7.91667 3.99994Z" fill="white"/>
</svg>
