<svg width="77" height="29" viewBox="0 0 77 29" fill="none" xmlns="http://www.w3.org/2000/svg">
<path d="M2.7591 0.707597C3.67543 0.707597 4.39637 0.906704 4.92192 1.30492C5.44746 1.70313 5.71023 2.25145 5.71023 2.94985C5.71023 3.64826 5.44746 4.19657 4.92192 4.59479C4.39637 4.993 3.67543 5.19211 2.7591 5.19211H1.01066V7.1403H0V0.707597H2.7591ZM2.72878 4.39262C3.36887 4.39262 3.85735 4.27009 4.19424 4.02503C4.53113 3.77385 4.69957 3.41546 4.69957 2.94985C4.69957 2.48425 4.53113 2.12892 4.19424 1.88386C3.85735 1.63268 3.36887 1.50709 2.72878 1.50709H1.01066V4.39262H2.72878Z" fill="white" fill-opacity="0.52"/>
<path d="M8.91623 2.22388C9.65739 2.22388 10.2234 2.38929 10.6141 2.72011C11.0117 3.05094 11.2104 3.54411 11.2104 4.19964V7.1403H10.2907V6.49703C10.129 6.72371 9.89657 6.89831 9.59338 7.02083C9.29692 7.13724 8.94319 7.19544 8.53218 7.19544C7.93253 7.19544 7.45078 7.06372 7.08694 6.80028C6.72984 6.53685 6.55129 6.19071 6.55129 5.76186C6.55129 5.33302 6.7231 4.98994 7.06673 4.73263C7.41035 4.4692 7.95611 4.33748 8.704 4.33748H10.2402V4.16288C10.2402 3.78304 10.1189 3.49204 9.87636 3.28987C9.6338 3.0877 9.2767 2.98661 8.80506 2.98661C8.48839 2.98661 8.17845 3.03562 7.87525 3.13364C7.57206 3.22554 7.31602 3.35113 7.10715 3.51042L6.70289 2.84877C6.97914 2.6466 7.30929 2.49344 7.69334 2.38929C8.07739 2.27901 8.48502 2.22388 8.91623 2.22388ZM8.69389 6.51541C9.06446 6.51541 9.38451 6.44189 9.65402 6.29486C9.92353 6.1417 10.1189 5.92728 10.2402 5.65159V4.97156H8.74442C7.92242 4.97156 7.51142 5.22274 7.51142 5.7251C7.51142 5.97016 7.61585 6.16314 7.82472 6.30405C8.03359 6.44495 8.32331 6.51541 8.69389 6.51541Z" fill="white" fill-opacity="0.52"/>
<path d="M15.8704 4.60398C16.2275 4.68975 16.5037 4.82759 16.6991 5.01751C16.8945 5.20743 16.9922 5.44329 16.9922 5.7251C16.9922 6.01304 16.8844 6.27035 16.6688 6.49703C16.4532 6.71758 16.1534 6.89218 15.7693 7.02083C15.392 7.14336 14.9675 7.20463 14.4959 7.20463C14.0983 7.20463 13.7076 7.15868 13.3235 7.06678C12.9462 6.96876 12.6093 6.83092 12.3128 6.65325L12.6059 5.98241C12.862 6.12945 13.1551 6.24585 13.4852 6.33162C13.8154 6.41126 14.1489 6.45108 14.4858 6.45108C14.9439 6.45108 15.3078 6.38063 15.5773 6.23972C15.8535 6.09269 15.9916 5.89664 15.9916 5.65159C15.9916 5.42491 15.8805 5.25031 15.6581 5.12778C15.4425 5.00525 15.136 4.94399 14.7384 4.94399H13.7581V4.30991H14.6677C15.0315 4.30991 15.3179 4.25171 15.5267 4.13531C15.7356 4.01891 15.84 3.85962 15.84 3.65745C15.84 3.4369 15.7154 3.26536 15.4661 3.14283C15.2235 3.02031 14.8934 2.95904 14.4757 2.95904C13.9434 2.95904 13.3808 3.08463 12.7879 3.33582L12.5251 2.65579C13.1786 2.35559 13.8625 2.2055 14.5767 2.2055C15.0079 2.2055 15.3954 2.26064 15.739 2.37091C16.0826 2.48118 16.3521 2.63741 16.5475 2.83958C16.7429 3.04175 16.8406 3.27149 16.8406 3.5288C16.8406 3.76773 16.753 3.98215 16.5778 4.17207C16.4026 4.36198 16.1668 4.50595 15.8704 4.60398Z" fill="white" fill-opacity="0.52"/>
<path d="M21.4082 2.22388C21.927 2.22388 22.3919 2.32803 22.8029 2.53632C23.2139 2.74462 23.534 3.03562 23.7631 3.40933C23.9989 3.78304 24.1168 4.21495 24.1168 4.70506C24.1168 5.19517 23.9989 5.63015 23.7631 6.00998C23.534 6.38369 23.2139 6.67469 22.8029 6.88299C22.3919 7.09129 21.927 7.19544 21.4082 7.19544C21.0242 7.19544 20.6705 7.12805 20.347 6.99327C20.0304 6.85849 19.7609 6.66244 19.5385 6.40513V8.92308H18.5683V2.26982H19.4981V3.04175C19.7137 2.77219 19.9866 2.57002 20.3167 2.43524C20.6469 2.29433 21.0107 2.22388 21.4082 2.22388ZM21.3274 6.42351C21.671 6.42351 21.9776 6.35306 22.2471 6.21215C22.5233 6.06512 22.7389 5.86295 22.8939 5.60564C23.0556 5.34221 23.1365 5.04201 23.1365 4.70506C23.1365 4.36811 23.0556 4.07098 22.8939 3.81367C22.7389 3.55024 22.5233 3.34807 22.2471 3.20716C21.9776 3.06625 21.671 2.9958 21.3274 2.9958C20.9905 2.9958 20.6839 3.06932 20.4077 3.21635C20.1382 3.35726 19.9226 3.55637 19.7609 3.81367C19.6059 4.07098 19.5284 4.36811 19.5284 4.70506C19.5284 5.04201 19.6059 5.34221 19.7609 5.60564C19.9158 5.86295 20.1314 6.06512 20.4077 6.21215C20.6839 6.35306 20.9905 6.42351 21.3274 6.42351Z" fill="white" fill-opacity="0.52"/>
<path d="M27.4883 2.22388C28.2295 2.22388 28.7954 2.38929 29.1862 2.72011C29.5837 3.05094 29.7825 3.54411 29.7825 4.19964V7.1403H28.8628V6.49703C28.7011 6.72371 28.4686 6.89831 28.1654 7.02083C27.869 7.13724 27.5153 7.19544 27.1042 7.19544C26.5046 7.19544 26.0228 7.06372 25.659 6.80028C25.3019 6.53685 25.1234 6.19071 25.1234 5.76186C25.1234 5.33302 25.2952 4.98994 25.6388 4.73263C25.9824 4.4692 26.5282 4.33748 27.2761 4.33748H28.8123V4.16288C28.8123 3.78304 28.691 3.49204 28.4484 3.28987C28.2059 3.0877 27.8488 2.98661 27.3771 2.98661C27.0605 2.98661 26.7505 3.03562 26.4473 3.13364C26.1441 3.22554 25.8881 3.35113 25.6792 3.51042L25.275 2.84877C25.5512 2.6466 25.8814 2.49344 26.2654 2.38929C26.6495 2.27901 27.0571 2.22388 27.4883 2.22388ZM27.266 6.51541C27.6365 6.51541 27.9566 6.44189 28.2261 6.29486C28.4956 6.1417 28.691 5.92728 28.8123 5.65159V4.97156H27.3165C26.4945 4.97156 26.0835 5.22274 26.0835 5.7251C26.0835 5.97016 26.1879 6.16314 26.3968 6.30405C26.6057 6.44495 26.8954 6.51541 27.266 6.51541Z" fill="white" fill-opacity="0.52"/>
<path d="M34.3594 2.43524C34.858 2.43524 35.3027 2.53632 35.6935 2.73849C36.0843 2.94066 36.3875 3.22248 36.6031 3.58393C36.8255 3.93926 36.9366 4.34667 36.9366 4.80615C36.9366 5.27788 36.8187 5.69754 36.5829 6.06512C36.3538 6.42658 36.027 6.70839 35.6026 6.91056C35.1848 7.11273 34.7064 7.21382 34.1674 7.21382C33.2578 7.21382 32.5537 6.932 32.0551 6.36837C31.5633 5.79862 31.3174 4.99913 31.3174 3.9699C31.3174 2.9713 31.5431 2.19018 31.9945 1.62655C32.4459 1.0568 33.1366 0.680028 34.0664 0.496237L36.5122 0L36.6536 0.808683L34.3999 1.24978C33.6992 1.39069 33.177 1.62962 32.8334 1.96657C32.4897 2.30352 32.2943 2.7875 32.2472 3.41852C32.4763 3.10608 32.7727 2.86408 33.1366 2.69255C33.5004 2.52101 33.908 2.43524 34.3594 2.43524ZM34.1876 6.47865C34.5313 6.47865 34.8345 6.4082 35.0972 6.26729C35.3667 6.12638 35.5756 5.9334 35.7238 5.68835C35.8721 5.43716 35.9462 5.15229 35.9462 4.83372C35.9462 4.34973 35.7845 3.96071 35.4611 3.66664C35.1377 3.37257 34.7132 3.22554 34.1876 3.22554C33.6621 3.22554 33.2342 3.37257 32.9041 3.66664C32.5807 3.96071 32.419 4.34973 32.419 4.83372C32.419 5.15229 32.4931 5.43716 32.6413 5.68835C32.7963 5.9334 33.0085 6.12638 33.278 6.26729C33.5476 6.4082 33.8508 6.47865 34.1876 6.47865Z" fill="white" fill-opacity="0.52"/>
<path d="M40.7176 7.19544C40.1853 7.19544 39.707 7.08822 39.2825 6.8738C38.858 6.65938 38.5245 6.36531 38.2819 5.9916C38.0461 5.61177 37.9282 5.18292 37.9282 4.70506C37.9282 4.2272 38.0461 3.80142 38.2819 3.42771C38.5245 3.04788 38.858 2.75381 39.2825 2.54551C39.707 2.33109 40.1853 2.22388 40.7176 2.22388C41.2499 2.22388 41.7249 2.33109 42.1426 2.54551C42.5671 2.75381 42.8973 3.04788 43.1331 3.42771C43.3756 3.80142 43.4969 4.2272 43.4969 4.70506C43.4969 5.18292 43.3756 5.61177 43.1331 5.9916C42.8973 6.36531 42.5671 6.65938 42.1426 6.8738C41.7249 7.08822 41.2499 7.19544 40.7176 7.19544ZM40.7176 6.42351C41.0612 6.42351 41.3678 6.35306 41.6373 6.21215C41.9136 6.06512 42.1292 5.86295 42.2841 5.60564C42.4391 5.34221 42.5166 5.04201 42.5166 4.70506C42.5166 4.36811 42.4391 4.07098 42.2841 3.81367C42.1292 3.55024 41.9136 3.34807 41.6373 3.20716C41.3678 3.06625 41.0612 2.9958 40.7176 2.9958C40.374 2.9958 40.0641 3.06625 39.7878 3.20716C39.5183 3.34807 39.3027 3.55024 39.141 3.81367C38.986 4.07098 38.9085 4.36811 38.9085 4.70506C38.9085 5.04201 38.986 5.34221 39.141 5.60564C39.3027 5.86295 39.5183 6.06512 39.7878 6.21215C40.0641 6.35306 40.374 6.42351 40.7176 6.42351Z" fill="white" fill-opacity="0.52"/>
<path d="M48.7937 3.04175H46.8331V7.1403H45.8628V3.04175H43.9021V2.26982H48.7937V3.04175Z" fill="white" fill-opacity="0.52"/>
<path d="M51.7971 2.22388C52.5382 2.22388 53.1042 2.38929 53.495 2.72011C53.8925 3.05094 54.0913 3.54411 54.0913 4.19964V7.1403H53.1715V6.49703C53.0098 6.72371 52.7774 6.89831 52.4742 7.02083C52.1777 7.13724 51.824 7.19544 51.413 7.19544C50.8133 7.19544 50.3316 7.06372 49.9678 6.80028C49.6107 6.53685 49.4321 6.19071 49.4321 5.76186C49.4321 5.33302 49.6039 4.98994 49.9475 4.73263C50.2912 4.4692 50.8369 4.33748 51.5848 4.33748H53.121V4.16288C53.121 3.78304 52.9997 3.49204 52.7572 3.28987C52.5146 3.0877 52.1575 2.98661 51.6859 2.98661C51.3692 2.98661 51.0593 3.03562 50.7561 3.13364C50.4529 3.22554 50.1968 3.35113 49.988 3.51042L49.5837 2.84877C49.86 2.6466 50.1901 2.49344 50.5742 2.38929C50.9582 2.27901 51.3658 2.22388 51.7971 2.22388ZM51.5747 6.51541C51.9453 6.51541 52.2653 6.44189 52.5348 6.29486C52.8043 6.1417 52.9997 5.92728 53.121 5.65159V4.97156H51.6252C50.8032 4.97156 50.3922 5.22274 50.3922 5.7251C50.3922 5.97016 50.4967 6.16314 50.7055 6.30405C50.9144 6.44495 51.2041 6.51541 51.5747 6.51541Z" fill="white" fill-opacity="0.52"/>
<path d="M55.9394 2.26982H56.9097V4.33748H59.9618V2.26982H60.9321V7.1403H59.9618V5.10021H56.9097V7.1403H55.9394V2.26982Z" fill="white" fill-opacity="0.52"/>
<path d="M65.2139 7.19544C64.6816 7.19544 64.2032 7.08822 63.7787 6.8738C63.3543 6.65938 63.0207 6.36531 62.7782 5.9916C62.5424 5.61177 62.4245 5.18292 62.4245 4.70506C62.4245 4.2272 62.5424 3.80142 62.7782 3.42771C63.0207 3.04788 63.3543 2.75381 63.7787 2.54551C64.2032 2.33109 64.6816 2.22388 65.2139 2.22388C65.7462 2.22388 66.2212 2.33109 66.6389 2.54551C67.0634 2.75381 67.3935 3.04788 67.6294 3.42771C67.8719 3.80142 67.9932 4.2272 67.9932 4.70506C67.9932 5.18292 67.8719 5.61177 67.6294 5.9916C67.3935 6.36531 67.0634 6.65938 66.6389 6.8738C66.2212 7.08822 65.7462 7.19544 65.2139 7.19544ZM65.2139 6.42351C65.5575 6.42351 65.8641 6.35306 66.1336 6.21215C66.4098 6.06512 66.6254 5.86295 66.7804 5.60564C66.9354 5.34221 67.0129 5.04201 67.0129 4.70506C67.0129 4.36811 66.9354 4.07098 66.7804 3.81367C66.6254 3.55024 66.4098 3.34807 66.1336 3.20716C65.8641 3.06625 65.5575 2.9958 65.2139 2.9958C64.8703 2.9958 64.5603 3.06625 64.2841 3.20716C64.0146 3.34807 63.799 3.55024 63.6373 3.81367C63.4823 4.07098 63.4048 4.36811 63.4048 4.70506C63.4048 5.04201 63.4823 5.34221 63.6373 5.60564C63.799 5.86295 64.0146 6.06512 64.2841 6.21215C64.5603 6.35306 64.8703 6.42351 65.2139 6.42351Z" fill="white" fill-opacity="0.52"/>
<path d="M75.959 4.61317C76.653 4.77245 77 5.1676 77 5.79862C77 6.22747 76.8214 6.55829 76.4643 6.7911C76.114 7.0239 75.5884 7.1403 74.8877 7.1403H72.3105V2.26982H74.7968C75.4301 2.26982 75.9253 2.3801 76.2824 2.60065C76.6395 2.81507 76.8181 3.12139 76.8181 3.51961C76.8181 3.77691 76.7406 4.00053 76.5856 4.19045C76.4374 4.37424 76.2285 4.51514 75.959 4.61317ZM73.2606 4.36505H74.7159C75.0865 4.36505 75.3661 4.30378 75.5548 4.18126C75.7502 4.05873 75.8479 3.88106 75.8479 3.64826C75.8479 3.18266 75.4705 2.94985 74.7159 2.94985H73.2606V4.36505ZM74.817 6.46027C75.2212 6.46027 75.5244 6.40207 75.7266 6.28567C75.9287 6.16927 76.0298 5.98854 76.0298 5.74348C76.0298 5.4923 75.9354 5.30545 75.7468 5.18292C75.5649 5.06039 75.2751 4.99913 74.8776 4.99913H73.2606V6.46027H74.817Z" fill="white" fill-opacity="0.52"/>
<path d="M5.0807 29L5.51511 27.4703H9.36813L9.80254 29H14.8832L10.1425 15.6154H4.74073L0 29H5.0807ZM7.04498 21.9635C7.21497 21.3325 7.36607 20.6251 7.44162 19.9558C7.51717 20.6251 7.66826 21.3325 7.83825 21.9635L8.40487 24.0286H6.45947L7.04498 21.9635Z" fill="white" fill-opacity="0.52"/>
<path d="M14.536 15.6154V20.0132H17.9358V29H22.9598V20.0132H26.3595V15.6154H14.536Z" fill="white" fill-opacity="0.52"/>
<path d="M39.8722 15.6154L36.4347 21.1413L32.9972 15.6154H28.6909V29H33.5261V23.627L35.1693 26.2848H37.7002L39.3434 23.6653V29H44.1785V15.6154H39.8722Z" fill="white" fill-opacity="0.52"/>
<path d="M51.2669 29L51.7013 27.4703H55.5543L55.9887 29H61.0694L56.3287 15.6154H50.9269L46.1862 29H51.2669ZM53.2312 21.9635C53.4012 21.3325 53.5523 20.6251 53.6278 19.9558C53.7034 20.6251 53.8545 21.3325 54.0245 21.9635L54.5911 24.0286H52.6457L53.2312 21.9635Z" fill="white" fill-opacity="0.52"/>
<path d="M68.1025 29V26.1319C68.1025 25.4244 68.1025 24.736 67.9703 23.7991L71.8988 29H75.8841V15.6154H70.86V18.4835C70.86 19.191 70.86 19.8793 70.9922 20.8163L67.0637 15.6154H63.0784V29H68.1025Z" fill="white" fill-opacity="0.52"/>
</svg>
