<svg width="19" height="19" viewBox="0 0 19 19" fill="none" xmlns="http://www.w3.org/2000/svg">
<path fill-rule="evenodd" clip-rule="evenodd" d="M8.42397 0.0646271C8.76985 0.0252519 9.1288 0 9.5 0C9.87215 0 10.2309 0.0259429 10.5743 0.0644329C10.9545 0.107048 11.2771 0.362844 11.4052 0.723329L12.1063 2.6962C12.2282 2.74288 12.3488 2.79286 12.4679 2.84609L14.3559 1.94709C14.7016 1.78251 15.1108 1.8297 15.4099 2.06863C15.9719 2.51752 16.4819 3.02792 16.9303 3.59027C17.1686 3.88913 17.2157 4.29768 17.0517 4.64292L16.1539 6.53226C16.2068 6.65086 16.2568 6.77116 16.3036 6.89314L18.2774 7.59514C18.6378 7.72331 18.8935 8.04582 18.9361 8.42594C18.9748 8.77062 19 9.12913 19 9.50028C19 9.87133 18.9748 10.2295 18.9368 10.5725C18.8948 10.9533 18.6389 11.2765 18.278 11.4049L16.3043 12.1068C16.2574 12.229 16.2073 12.3498 16.154 12.4688L17.0515 14.3563C17.2158 14.7018 17.1686 15.1107 16.9299 15.4097C16.482 15.9706 15.9728 16.4812 15.409 16.9305C15.1101 17.1686 14.7017 17.2156 14.3566 17.0516L12.4673 16.1538C12.3487 16.2067 12.2284 16.2566 12.1065 16.3035L11.4039 18.2776C11.2757 18.6379 10.9533 18.8935 10.5732 18.9361C10.2286 18.9747 9.87064 19 9.49944 19C9.12788 19 8.76976 18.9748 8.42666 18.9368C8.04602 18.8948 7.72284 18.639 7.59442 18.2782L6.8919 16.3045C6.76991 16.2576 6.64946 16.2076 6.53064 16.1544L4.64417 17.0529C4.29892 17.2173 3.89013 17.1704 3.59104 16.9322C3.02841 16.4839 2.51759 15.9744 2.06832 15.4105C1.83011 15.1115 1.78322 14.7029 1.94749 14.3577L2.84622 12.4691C2.79313 12.3502 2.74316 12.2297 2.69639 12.1077L0.722925 11.4053C0.363225 11.2773 0.107806 10.9557 0.0646243 10.5763C0.0252553 10.2305 0 9.87152 0 9.50083C0 9.12934 0.0259255 8.76944 0.0644519 8.4263C0.107097 8.04648 0.362512 7.72419 0.722543 7.59589L2.6963 6.89257C2.74306 6.77053 2.79303 6.65001 2.84613 6.53109L1.9471 4.64378C1.78253 4.29832 1.82954 3.88923 2.06818 3.59009C2.51699 3.02752 3.02688 2.51689 3.59049 2.06784C3.88952 1.8296 4.29823 1.78271 4.64345 1.94705L6.53234 2.84625C6.65113 2.79318 6.77155 2.74323 6.89356 2.69647L7.59482 0.723329C7.72272 0.363432 8.04447 0.107829 8.42397 0.0646271ZM9.26206 2.00444L8.61675 3.82016C8.51043 4.11931 8.26838 4.3502 7.96455 4.44229C7.63135 4.54327 7.31306 4.67587 7.01006 4.83809C6.72991 4.98808 6.39515 4.996 6.10823 4.85941L4.37304 4.03338C4.25634 4.14296 4.1431 4.25624 4.03347 4.37308L4.8592 6.10652C4.9959 6.39348 4.98803 6.72833 4.83801 7.00856C4.67593 7.3113 4.54322 7.63025 4.4421 7.96345C4.35002 8.26685 4.11952 8.5086 3.82086 8.61503L2.00456 9.26225C2.00157 9.34211 2 9.42162 2 9.50083C2 9.5799 2.00152 9.65911 2.00444 9.73854L3.82048 10.3848C4.11932 10.4912 4.34998 10.733 4.4421 11.0365C4.54322 11.3697 4.67593 11.6887 4.83801 11.9914C4.98797 12.2715 4.9959 12.6062 4.85937 12.8931L4.03386 14.6278C4.14331 14.7443 4.25647 14.8573 4.37318 14.9667L6.10641 14.1412C6.39336 14.0046 6.7282 14.0124 7.0084 14.1625C7.31185 14.3249 7.63124 14.4583 7.96448 14.5599C8.26744 14.6522 8.50872 14.8827 8.61493 15.1811L9.26079 16.9956C9.34052 16.9985 9.42003 17 9.49944 17C9.5786 17 9.65785 16.9985 9.7373 16.9956L10.3834 15.18C10.4896 14.8816 10.7309 14.6511 11.0339 14.5588C11.3671 14.4571 11.6873 14.3236 11.992 14.1613C12.2716 14.0125 12.6051 14.0049 12.8912 14.1409L14.626 14.9652C14.7425 14.8558 14.8556 14.7426 14.9651 14.6259L14.1405 12.8918C14.0038 12.6043 14.0121 12.269 14.1629 11.9886C14.3242 11.6887 14.4575 11.369 14.5593 11.0346C14.6516 10.7314 14.8822 10.4899 15.1808 10.3837L16.9956 9.73823C16.9985 9.6587 17 9.57942 17 9.50028C17 9.42099 16.9985 9.34159 16.9956 9.26196L15.1803 8.61634C14.8816 8.51013 14.651 8.26863 14.5587 7.96542C14.4572 7.63211 14.3238 7.31261 14.1614 7.00755C14.0126 6.72801 14.005 6.39452 14.1409 6.1085L14.9654 4.3735C14.8558 4.2567 14.7426 4.14338 14.6259 4.03369L12.8919 4.85937C12.6046 4.99616 12.2693 4.98807 11.989 4.83758C11.6853 4.67457 11.3661 4.54223 11.0362 4.44252C10.732 4.35059 10.4897 4.11957 10.3832 3.82016L9.73797 2.00453C9.65838 2.00156 9.5791 2 9.5 2C9.42081 2 9.34153 2.00152 9.26206 2.00444Z" fill="white"/>
<path fill-rule="evenodd" clip-rule="evenodd" d="M9.5 11C10.3284 11 11 10.3284 11 9.5C11 8.67157 10.3284 8 9.5 8C8.67157 8 8 8.67157 8 9.5C8 10.3284 8.67157 11 9.5 11ZM9.5 13C11.433 13 13 11.433 13 9.5C13 7.567 11.433 6 9.5 6C7.567 6 6 7.567 6 9.5C6 11.433 7.567 13 9.5 13Z" fill="white"/>
</svg>
